<?xml version="1.0" encoding="UTF-8"?>
<!DOCTYPE svg PUBLIC "-//W3C//DTD SVG 1.1//EN" "http://www.w3.org/Graphics/SVG/1.1/DTD/svg11.dtd">
<svg version="1.1" xmlns="http://www.w3.org/2000/svg" xmlns:xlink="http://www.w3.org/1999/xlink" x="0" y="0" width="38.708" height="61.055" viewBox="0, 0, 38.708, 61.055">
  <g id="Layer_1">
    <path d="M19.216,0 C18.829,0.007 18.476,0.864 18.083,2.626 C17.479,5.33 17.299,8.02 17.696,8.417 C18.251,8.971 18.09,9.254 16.949,9.731 C16.118,10.078 15.713,10.104 15.222,9.841 C14.351,9.375 13.756,9.931 14.354,10.651 C15.003,11.433 15.944,11.672 17.358,11.413 C18.469,11.21 18.649,11.251 18.649,11.711 C18.649,12.092 18.227,12.353 17.187,12.617 C16.382,12.821 15.516,13.116 15.262,13.273 C15.008,13.43 14.488,13.694 14.107,13.859 C13.726,14.023 13.414,14.284 13.414,14.438 C13.414,14.592 13.138,14.79 12.799,14.879 C12.446,14.971 12.183,15.299 12.183,15.647 C12.183,15.981 11.982,16.42 11.736,16.624 C11.49,16.828 11.196,17.642 11.081,18.433 C10.967,19.223 10.755,20.021 10.609,20.204 C10.19,20.733 10.555,24.381 11.144,25.557 C11.852,26.969 14.516,29.57 15.256,29.57 C15.578,29.57 15.927,29.708 16.032,29.877 C16.137,30.047 16.619,30.186 17.104,30.186 L17.987,30.186 L18.087,32.65 C18.142,34.005 18.087,35.113 17.964,35.113 C17.842,35.113 17.531,34.705 17.274,34.208 C16.705,33.107 13.279,29.879 11.45,28.72 C11.037,28.458 10.192,27.254 9.149,25.441 C8.255,23.886 7.498,20.859 7.75,19.851 C8.058,18.625 7.47,18.995 6.574,20.59 C5.624,22.282 4.976,25.748 5.196,27.965 C5.479,30.824 7.631,34.868 10.08,37.142 C11.085,38.077 13.897,40.039 14.23,40.039 C14.323,40.039 14.836,40.234 15.369,40.472 C15.903,40.71 16.688,40.982 17.114,41.075 C17.841,41.235 17.892,41.375 17.948,43.337 C17.98,44.487 17.933,45.901 17.842,46.48 L17.678,47.533 L15.777,45.538 C13.879,43.545 12.527,42.502 11.842,42.502 C11.146,42.502 8.204,39.698 6.812,37.706 C6.04,36.602 5.409,35.599 5.409,35.478 C5.409,35.356 5,34.419 4.5,33.395 C3.491,31.326 2.806,27.826 3.125,26.371 C3.319,25.489 3.296,25.456 2.783,25.881 C1.671,26.802 0.274,30.325 0.053,32.767 C-0.291,36.565 1.09,42.66 2.83,45.018 C3.232,45.563 3.561,46.228 3.561,46.497 C3.561,46.765 3.942,47.327 4.408,47.745 C4.874,48.164 5.608,48.923 6.039,49.431 C8.043,51.791 12.687,53.883 15.943,53.891 L17.702,53.896 L17.517,55.974 C17.351,57.834 17.221,58.156 16.271,59.041 C15.084,60.149 15.148,60.537 16.586,60.929 C17.128,61.076 17.763,61.098 17.996,60.976 C18.23,60.854 18.992,60.816 19.69,60.892 C20.533,60.983 21.396,60.831 22.266,60.438 C23.709,59.784 23.681,59.438 22.186,59.438 C20.744,59.438 20.236,58.665 19.998,56.112 L19.792,53.896 L20.639,53.896 C23.378,53.896 28.317,51.781 30.504,49.671 C31.351,48.854 32.321,47.981 32.66,47.731 C33.644,47.003 35.835,43.896 36.386,42.446 C36.664,41.715 37.15,40.557 37.465,39.874 C37.984,38.751 38.747,35.728 38.706,34.958 C38.565,32.262 37.679,28.241 37.082,27.583 C36.936,27.423 36.816,27.03 36.816,26.711 C36.816,26.384 36.648,26.187 36.431,26.259 C36.22,26.329 35.962,27.137 35.858,28.055 C35.646,29.934 34.643,33.35 33.856,34.871 C32.609,37.283 30.324,39.728 28.414,40.695 C25.818,42.009 23.593,43.807 22.604,45.391 C21.482,47.186 20.509,48.353 20.132,48.353 C19.99,48.353 19.934,47.002 20.007,45.35 C20.08,43.699 20.151,42.036 20.164,41.655 C20.184,41.104 20.369,40.963 21.067,40.963 C22.869,40.963 24.942,40.068 27.475,38.196 C29.327,36.828 29.687,36.389 31.377,33.443 C33.414,29.891 34.301,24.389 33.278,21.649 C32.736,20.197 32.003,19.1 31.574,19.1 C31.453,19.1 31.256,20.085 31.138,21.289 C30.91,23.598 30.617,24.481 29.543,26.095 C28.401,27.809 27.468,28.788 26.039,29.773 C24.111,31.102 22.639,32.677 21.731,34.383 C21.306,35.182 20.802,35.886 20.612,35.948 C20.109,36.112 19.908,34.646 20.106,32.264 C20.247,30.564 20.375,30.185 20.811,30.185 C21.504,30.185 23.573,29.32 23.584,29.026 C23.589,28.902 24.148,28.457 24.828,28.037 C25.944,27.348 26.963,25.975 26.963,25.159 C26.963,24.986 27.19,24.594 27.467,24.288 C28.337,23.327 28.003,18.827 26.876,16.329 C26.403,15.281 23.557,12.634 22.902,12.634 C21.954,12.634 20.804,11.932 20.804,11.353 C20.804,10.75 21.262,10.588 21.567,11.083 C21.668,11.246 22.26,11.52 22.882,11.692 C23.769,11.937 24.165,11.905 24.718,11.542 C25.658,10.926 25.632,10.17 24.671,10.17 C24.257,10.17 23.44,9.888 22.854,9.542 C21.822,8.933 21.802,8.886 22.221,8.046 C22.605,7.275 22.584,6.958 22.031,5.227 C21.688,4.154 21.217,3.061 20.983,2.798 C20.749,2.534 20.343,1.799 20.081,1.164 C19.761,0.389 19.481,-0.005 19.216,-0 z M19.305,1.702 C19.706,1.688 20.565,3.037 20.337,3.405 C20.125,3.748 19.465,3.801 19.162,3.499 C18.862,3.199 18.912,1.921 19.232,1.723 C19.254,1.71 19.278,1.703 19.305,1.702 z M19.881,4.012 C20.558,4.012 21.112,4.151 21.112,4.32 C21.112,4.489 20.558,4.628 19.881,4.628 C19.203,4.628 18.649,4.489 18.649,4.32 C18.649,4.151 19.203,4.012 19.881,4.012 z M20.368,5.244 C21.372,5.244 21.728,5.365 21.728,5.706 C21.728,6.185 21.567,6.197 19.265,5.89 C17.569,5.664 18.287,5.244 20.368,5.244 z M19.886,6.482 C20.823,6.487 21.76,6.586 21.878,6.776 C21.992,6.96 21.229,7.068 19.893,7.056 C18.675,7.044 17.799,6.913 17.897,6.755 C18.013,6.567 18.95,6.477 19.886,6.482 z M19.356,7.628 C19.512,7.627 19.686,7.629 19.881,7.632 C21.537,7.66 21.775,7.72 21.655,8.08 C21.459,8.669 18.454,8.753 18.233,8.176 C18.072,7.758 18.264,7.635 19.356,7.628 z M20.427,9 C21.01,9.022 21.457,9.248 22.264,9.836 C22.983,10.359 23.788,10.786 24.053,10.786 C24.319,10.786 24.45,10.925 24.345,11.094 C24.068,11.544 23.548,11.475 22.339,10.827 C20.489,9.836 19.377,9.73 18.456,10.454 C17.638,11.097 15.752,11.329 15.44,10.825 C15.349,10.678 15.774,10.476 16.384,10.377 C16.994,10.278 17.743,9.971 18.048,9.696 C18.352,9.42 19.132,9.125 19.78,9.04 C20.023,9.008 20.232,8.992 20.427,9 z M19.778,10.478 C20.004,10.478 20.189,10.747 20.189,11.076 C20.189,11.923 19.661,12.143 19.291,11.451 C18.954,10.821 19.125,10.478 19.778,10.478 z M19.745,12.634 C20.225,12.634 20.295,12.922 20.002,13.686 C19.768,14.296 19.3,14.316 19.074,13.726 C18.855,13.155 19.175,12.634 19.745,12.634 z M21.483,12.667 C21.535,12.672 21.581,12.692 21.619,12.73 C21.72,12.831 21.714,13.266 21.605,13.697 C21.378,14.601 20.497,14.765 20.497,13.903 C20.497,13.36 21.124,12.637 21.483,12.667 z M17.726,13.124 C18.038,13.104 18.358,13.433 18.28,13.958 C18.175,14.67 17.577,14.988 17.272,14.495 C17.161,14.315 17.155,13.899 17.26,13.571 C17.354,13.274 17.538,13.136 17.726,13.124 z M22.987,13.306 C23.072,13.308 23.145,13.332 23.196,13.383 C23.277,13.465 23.262,13.745 23.161,14.006 C22.934,14.598 22.036,14.635 22.036,14.052 C22.036,13.701 22.621,13.298 22.987,13.306 z M15.988,13.705 C16.36,13.657 16.878,14.454 16.692,14.939 C16.593,15.195 16.386,15.405 16.231,15.405 C15.847,15.405 15.53,14.09 15.84,13.781 C15.884,13.736 15.934,13.712 15.988,13.705 z M14.32,14.476 C14.603,14.476 15.026,14.659 15.273,14.956 C15.881,15.69 15.189,16.175 14.546,15.465 C14.263,15.151 14.03,14.802 14.03,14.688 C14.03,14.542 14.15,14.476 14.32,14.476 z M24.089,14.481 C24.902,14.481 24.968,14.706 24.379,15.482 C23.867,16.156 23.807,16.154 23.36,15.439 C22.925,14.741 23.123,14.481 24.089,14.481 z M19.683,14.878 C21.126,14.894 22.597,15.373 23.294,16.11 C24.404,17.283 25.423,19.618 25.423,20.988 C25.423,21.698 25.183,23.041 24.889,23.973 C24.46,25.334 24.062,25.898 22.86,26.848 C21.456,27.958 21.24,28.029 19.314,28.01 C15.994,27.979 14.758,27.186 13.726,24.427 C13.056,22.637 12.94,21.08 13.393,19.962 C13.551,19.573 13.761,18.876 13.859,18.414 C14.114,17.223 16.922,15.209 18.7,14.943 C19.02,14.895 19.351,14.874 19.683,14.878 z M13.084,15.409 C13.371,15.396 13.821,15.62 14.184,16.021 C14.607,16.488 14.637,16.635 14.309,16.628 C13.712,16.615 12.799,16.052 12.799,15.698 C12.799,15.508 12.912,15.416 13.084,15.409 z M25.742,15.517 C26.197,15.542 26.142,16.029 25.5,16.516 C24.871,16.994 24.594,17.039 24.384,16.699 C24.15,16.32 24.581,15.819 25.346,15.58 C25.505,15.531 25.637,15.512 25.742,15.517 z M19.821,15.964 C18.901,15.983 17.951,16.194 17.418,16.588 C16.924,16.954 16.409,17.253 16.275,17.253 C15.892,17.253 14.338,19.325 14.338,19.836 C14.338,20.089 14.216,20.372 14.065,20.464 C13.622,20.738 13.949,24.042 14.476,24.625 C14.739,24.916 14.954,25.266 14.954,25.403 C14.954,25.744 15.843,26.434 16.956,26.956 C17.505,27.213 18.316,27.318 18.957,27.215 C20.497,26.966 23.268,25.625 23.268,25.129 C23.268,24.898 23.476,24.629 23.73,24.532 C23.984,24.434 24.192,24.012 24.192,23.593 C24.192,23.174 24.317,22.754 24.471,22.659 C24.625,22.564 24.717,21.669 24.675,20.67 C24.617,19.294 24.419,18.629 23.856,17.917 C23.448,17.401 22.986,16.971 22.83,16.962 C22.674,16.953 22.321,16.741 22.045,16.491 C21.632,16.117 20.741,15.944 19.821,15.964 z M19.256,16.391 C19.283,16.391 19.311,16.396 19.342,16.406 C19.553,16.477 19.727,16.788 19.727,17.099 C19.727,17.409 19.553,17.721 19.342,17.792 C19.098,17.873 18.957,17.619 18.957,17.099 C18.957,16.644 19.065,16.392 19.256,16.391 z M26.045,16.681 C26.155,16.685 26.242,16.776 26.353,16.954 C26.512,17.211 26.487,17.546 26.292,17.782 C25.857,18.305 25.115,18.287 25.115,17.752 C25.115,17.519 25.334,17.147 25.601,16.926 C25.802,16.759 25.934,16.677 26.045,16.681 z M21.041,16.713 C21.239,16.684 21.42,16.899 21.42,17.381 C21.42,17.899 21.251,18.177 20.937,18.177 C20.616,18.177 20.487,17.952 20.552,17.508 C20.625,17.015 20.842,16.742 21.041,16.713 z M18.053,16.961 C18.191,16.977 18.347,17.131 18.462,17.432 C18.565,17.7 18.649,17.977 18.649,18.048 C18.649,18.119 18.441,18.177 18.187,18.177 C17.931,18.177 17.726,17.903 17.726,17.561 C17.726,17.148 17.875,16.941 18.053,16.961 z M12.809,17.047 C13.216,17.065 13.723,17.323 13.723,17.594 C13.723,17.958 12.577,17.949 12.35,17.582 C12.253,17.425 12.301,17.216 12.458,17.119 C12.549,17.063 12.674,17.042 12.809,17.047 z M22.556,17.411 C22.892,17.414 23.021,17.886 22.641,18.344 C22.436,18.591 22.147,18.793 21.998,18.793 C21.573,18.793 21.683,17.981 22.163,17.583 C22.309,17.462 22.444,17.411 22.556,17.411 z M16.554,17.874 C16.816,17.87 17.146,17.986 17.28,18.204 C17.597,18.717 16.986,19.161 16.555,18.731 C16.352,18.528 16.186,18.25 16.186,18.115 C16.186,17.954 16.35,17.877 16.554,17.874 z M26.716,18.177 C27.174,18.177 26.967,19.341 26.476,19.529 C25.798,19.79 25.731,19.77 25.731,19.316 C25.731,18.872 26.333,18.177 26.716,18.177 z M19.59,18.336 C20.341,18.352 21.149,18.72 21.946,19.468 C23.197,20.644 22.725,22.996 21.014,24.115 C19.932,24.822 19.181,24.923 18.033,24.514 C16.798,24.073 16.129,23 16.391,21.876 C16.931,19.554 18.157,18.305 19.59,18.336 z M12.531,18.484 C12.955,18.484 13.119,18.654 13.049,19.02 C12.93,19.633 12.031,19.91 11.732,19.425 C11.434,18.945 11.825,18.484 12.531,18.484 z M19.448,18.558 L18.51,19.213 C17.994,19.573 17.526,19.891 17.471,19.918 C17.416,19.946 17.309,20.51 17.233,21.173 C17.106,22.275 17.19,22.447 18.218,23.178 L19.341,23.977 L20.535,23.355 C21.354,22.928 21.73,22.525 21.733,22.071 C21.735,21.707 21.815,21.118 21.91,20.762 C22.049,20.245 21.82,19.959 20.766,19.337 L19.448,18.558 z M23.541,18.578 C23.681,18.571 23.816,18.596 23.926,18.665 C24.107,18.776 24.081,19.016 23.861,19.282 C23.398,19.84 22.652,19.843 22.652,19.287 C22.652,18.92 23.12,18.6 23.541,18.578 z M15.543,18.849 C15.909,18.84 16.494,19.244 16.494,19.595 C16.494,20.178 15.596,20.141 15.368,19.549 C15.268,19.288 15.252,19.007 15.334,18.926 C15.385,18.874 15.458,18.851 15.543,18.849 z M19.399,19.16 C19.808,19.166 20.227,19.446 20.112,19.793 C19.94,20.308 19.069,20.455 18.797,20.014 C18.678,19.821 18.724,19.518 18.902,19.341 C19.031,19.211 19.214,19.158 19.399,19.16 z M23.917,19.805 C24.022,19.799 24.119,19.829 24.197,19.906 C24.414,20.124 24.328,20.391 23.921,20.76 C23.497,21.144 23.266,21.195 23.108,20.938 C22.854,20.528 23.46,19.831 23.917,19.805 z M18.033,20.024 C18.203,20.024 18.341,20.154 18.341,20.314 C18.341,20.473 18.203,20.689 18.033,20.794 C17.864,20.899 17.726,20.768 17.726,20.504 C17.726,20.24 17.864,20.024 18.033,20.024 z M20.958,20.024 C21.212,20.024 21.42,20.232 21.42,20.486 C21.42,20.967 21.056,21.097 20.702,20.743 C20.348,20.388 20.478,20.024 20.958,20.024 z M26.603,20.105 C26.737,20.096 26.873,20.122 26.991,20.195 C27.145,20.29 27.271,20.568 27.271,20.812 C27.271,21.385 26.157,21.391 25.937,20.819 C25.804,20.471 26.199,20.131 26.603,20.105 z M15.151,20.215 C15.283,20.219 15.436,20.26 15.597,20.347 C15.93,20.525 16.122,20.803 16.022,20.963 C15.785,21.348 15.042,21.338 14.8,20.948 C14.537,20.521 14.753,20.202 15.151,20.215 z M12.293,20.337 C12.688,20.333 12.807,20.482 12.678,20.819 C12.575,21.087 12.491,21.364 12.491,21.435 C12.491,21.723 11.28,21.539 11.084,21.222 C10.834,20.818 11.482,20.343 12.293,20.337 z M19.526,20.712 C19.594,20.714 19.663,20.727 19.73,20.753 C20.159,20.917 20.187,21.041 19.878,21.413 C19.456,21.921 19.073,22 18.842,21.626 C18.594,21.225 19.048,20.699 19.526,20.712 z M31.947,21.092 C32.155,21.08 32.429,21.427 32.683,22.034 C32.943,22.657 33.113,23.554 33.061,24.028 L32.967,24.89 L32.408,24.142 C31.711,23.211 31.387,21.413 31.862,21.119 C31.889,21.102 31.917,21.093 31.947,21.092 z M23.763,21.564 C23.999,21.564 24.192,21.771 24.192,22.026 C24.192,22.28 23.919,22.487 23.585,22.487 C23.173,22.487 23.036,22.34 23.156,22.026 C23.254,21.771 23.527,21.564 23.763,21.564 z M27.194,21.569 C27.749,21.562 27.668,22.387 27.092,22.608 C26.447,22.856 26.418,22.851 26.172,22.453 C25.948,22.092 26.544,21.577 27.194,21.569 z M15.874,21.576 C16.201,21.571 16.166,21.678 15.9,22 C15.418,22.579 14.23,22.662 14.413,22.103 C14.483,21.891 14.937,21.671 15.422,21.614 C15.616,21.592 15.765,21.578 15.874,21.576 z M18.006,21.602 C18.099,21.593 18.191,21.619 18.264,21.692 C18.369,21.797 18.306,22.03 18.125,22.212 C17.903,22.433 17.731,22.438 17.601,22.228 C17.437,21.962 17.727,21.629 18.006,21.602 z M20.632,21.612 C20.662,21.612 20.694,21.616 20.728,21.622 C21.024,21.679 21.266,21.92 21.266,22.158 C21.266,22.644 20.723,22.919 20.4,22.597 C20.004,22.2 20.172,21.601 20.632,21.612 z M12.331,22.218 C12.658,22.232 12.799,22.359 12.799,22.621 C12.799,22.954 12.506,23.103 11.849,23.103 C10.671,23.103 10.777,22.378 11.976,22.236 C12.048,22.227 12.116,22.222 12.178,22.219 C12.233,22.216 12.284,22.216 12.331,22.218 z M6.881,22.329 C6.979,22.331 7.085,22.435 7.244,22.626 C7.584,23.036 7.56,23.213 7.097,23.725 C6.087,24.841 5.657,24.267 6.442,22.852 C6.642,22.492 6.755,22.327 6.881,22.329 z M19.419,22.487 C19.673,22.487 19.881,22.695 19.881,22.949 C19.881,23.203 19.673,23.411 19.419,23.411 C19.165,23.411 18.957,23.203 18.957,22.949 C18.957,22.695 19.165,22.487 19.419,22.487 z M15.575,22.839 C15.685,22.842 15.772,22.932 15.881,23.108 C16.026,23.344 16.077,23.646 15.993,23.781 C15.787,24.115 14.646,24.094 14.646,23.757 C14.646,23.608 14.865,23.305 15.132,23.084 C15.332,22.917 15.465,22.835 15.575,22.839 z M22.903,22.907 C23.385,22.903 24.016,23.563 23.748,23.998 C23.46,24.464 23.106,24.42 22.641,23.86 C22.341,23.499 22.333,23.3 22.606,23.027 C22.688,22.944 22.792,22.907 22.903,22.907 z M26.227,23.19 C26.723,23.208 27.294,23.496 27.187,23.822 C27.026,24.311 25.841,24.454 25.572,24.018 C25.452,23.824 25.494,23.525 25.666,23.354 C25.79,23.229 26.001,23.182 26.227,23.19 z M12.34,23.798 C12.659,23.809 12.929,23.955 13.017,24.219 C13.167,24.669 12.065,24.954 11.524,24.605 C11.176,24.381 11.183,24.283 11.567,24.027 C11.813,23.863 12.092,23.79 12.34,23.798 z M31.608,24.117 C31.996,24.101 32.472,24.711 32.671,25.618 C32.917,26.738 32.516,27.266 31.833,26.722 C31.221,26.235 30.907,24.929 31.263,24.352 C31.36,24.196 31.479,24.122 31.608,24.117 z M21.984,24.147 C22.01,24.146 22.036,24.146 22.062,24.148 C22.202,24.157 22.349,24.212 22.485,24.324 C22.746,24.541 22.96,24.84 22.96,24.988 C22.96,25.376 21.804,25.323 21.558,24.924 C21.309,24.522 21.601,24.166 21.984,24.147 z M16.236,24.225 C16.511,24.23 16.591,24.562 16.378,25.115 C16.171,25.656 15.69,25.703 15.387,25.212 C15.266,25.017 15.43,24.666 15.75,24.431 C15.946,24.288 16.111,24.223 16.236,24.225 z M7.29,24.439 C7.313,24.437 7.335,24.437 7.356,24.439 C7.564,24.465 7.579,24.727 7.417,25.235 C7.285,25.651 6.953,25.874 6.466,25.874 C5.495,25.874 5.514,25.462 6.513,24.807 C6.866,24.577 7.123,24.453 7.29,24.439 z M17.428,24.643 C17.614,24.643 17.723,25.013 17.669,25.466 C17.573,26.275 16.999,26.761 16.712,26.276 C16.491,25.901 17.043,24.643 17.428,24.643 z M25.731,24.643 C26.07,24.643 26.347,24.842 26.347,25.086 C26.347,25.622 26.021,25.84 25.5,25.653 C24.879,25.43 25.059,24.643 25.731,24.643 z M20.753,24.973 C21.079,24.972 21.716,25.645 21.553,25.909 C21.46,26.06 21.268,26.183 21.127,26.183 C20.818,26.183 20.418,25.234 20.636,25.017 C20.666,24.986 20.707,24.973 20.753,24.973 z M13.169,25.089 C13.278,25.092 13.319,25.21 13.368,25.444 C13.427,25.725 13.288,26.073 13.06,26.218 C12.058,26.853 11.592,26.109 12.563,25.425 C12.884,25.199 13.06,25.087 13.169,25.089 z M19.807,25.267 C19.826,25.265 19.844,25.265 19.862,25.267 C20.045,25.286 20.189,25.495 20.189,25.856 C20.189,26.185 20.049,26.54 19.879,26.646 C19.503,26.878 19.131,26.033 19.41,25.581 C19.535,25.38 19.678,25.278 19.807,25.267 z M8.1,25.283 C8.156,25.297 8.165,25.449 8.17,25.75 C8.185,26.746 7.26,27.406 6.34,27.056 C5.718,26.82 5.661,26.714 6.032,26.479 C6.282,26.321 6.679,26.19 6.914,26.187 C7.15,26.185 7.526,25.94 7.751,25.644 C7.942,25.392 8.044,25.268 8.1,25.283 z M18.591,25.289 C18.641,25.308 18.623,25.489 18.581,25.85 C18.534,26.26 18.322,26.653 18.11,26.723 C17.587,26.895 17.626,26.426 18.196,25.702 C18.424,25.413 18.542,25.27 18.591,25.289 z M24.726,25.886 C24.913,25.89 25.204,26.025 25.562,26.287 C26.042,26.639 26.057,26.726 25.658,26.879 C25.196,27.056 24.5,26.6 24.5,26.121 C24.5,25.961 24.581,25.884 24.726,25.886 z M30.515,26.003 C30.666,26.012 30.82,26.201 30.993,26.582 C31.194,27.022 31.64,27.424 31.985,27.475 C32.329,27.526 32.668,27.741 32.738,27.953 C32.821,28.205 32.539,28.338 31.923,28.338 C31.181,28.338 30.877,28.135 30.486,27.379 C30.143,26.716 30.089,26.321 30.309,26.1 C30.378,26.031 30.446,25.999 30.515,26.003 z M13.88,26.22 C13.984,26.231 14.104,26.361 14.3,26.598 C14.562,26.914 14.505,27.139 14.06,27.541 C13.348,28.186 12.928,27.708 13.411,26.805 C13.633,26.39 13.745,26.206 13.88,26.22 z M8.886,26.564 C9.078,26.582 9.137,26.932 8.981,27.554 C8.807,28.246 8.625,28.338 7.422,28.338 C6.674,28.338 5.975,28.199 5.871,28.03 C5.758,27.847 6.118,27.722 6.759,27.722 C7.519,27.722 7.976,27.523 8.309,27.048 C8.526,26.738 8.712,26.583 8.846,26.565 C8.86,26.563 8.874,26.563 8.886,26.564 z M23.915,26.877 C24.217,26.888 24.5,27.173 24.5,27.586 C24.5,28.105 23.707,28.184 23.405,27.695 C23.291,27.511 23.34,27.218 23.514,27.045 C23.636,26.923 23.777,26.872 23.915,26.877 z M29.619,27.444 C29.639,27.442 29.66,27.442 29.681,27.445 C29.837,27.467 30.04,27.624 30.263,27.953 C30.572,28.409 31.044,28.646 31.642,28.646 C32.341,28.646 32.527,28.77 32.448,29.185 C32.377,29.562 31.999,29.753 31.187,29.82 C30.131,29.907 29.99,29.825 29.595,28.896 C29.243,28.065 29.325,27.476 29.619,27.444 z M15.211,27.722 C15.993,27.722 16.244,28.05 15.838,28.541 C15.459,28.997 15.162,29.06 14.851,28.749 C14.443,28.34 14.659,27.722 15.211,27.722 z M9.694,27.736 C9.85,27.749 10.036,27.916 10.156,28.228 C10.265,28.513 10.124,28.985 9.833,29.306 C9.192,30.014 6.895,30.093 6.341,29.426 C6.021,29.041 6.168,28.979 7.349,29.003 C8.89,29.034 9.411,28.822 9.411,28.166 C9.411,27.864 9.538,27.723 9.694,27.736 z M22.572,27.792 C22.593,27.791 22.615,27.791 22.637,27.793 C22.754,27.806 22.871,27.879 22.968,28.032 C23.127,28.285 23.217,28.622 23.167,28.781 C23.001,29.306 22.348,29.321 22.149,28.805 C21.955,28.299 22.247,27.819 22.572,27.792 z M36.392,28.041 C36.547,28.023 36.868,28.582 37.229,29.598 C37.788,31.173 37.783,31.771 37.216,31.04 C36.784,30.482 36.416,29.53 36.32,28.723 C36.266,28.27 36.299,28.051 36.392,28.041 z M28.46,28.212 C28.613,28.227 28.945,28.626 29.256,29.183 C29.802,30.159 30.085,30.355 31.07,30.436 C31.799,30.497 32.19,30.669 32.114,30.897 C31.987,31.278 29.395,31.478 28.888,31.146 C28.525,30.909 28.128,28.507 28.406,28.229 C28.42,28.215 28.438,28.209 28.46,28.212 z M20.941,28.338 C21.364,28.338 21.791,29.404 21.49,29.706 C21.161,30.034 20.476,29.875 20.306,29.43 C20.091,28.873 20.402,28.338 20.941,28.338 z M2.261,28.453 C2.304,28.471 2.312,28.649 2.317,28.972 C2.324,29.405 2.126,30.029 1.877,30.358 C1.293,31.13 1.281,30.542 1.855,29.22 C2.092,28.675 2.205,28.431 2.261,28.453 z M17.038,28.501 C17.411,28.519 17.789,28.959 17.626,29.384 C17.522,29.656 17.29,29.877 17.11,29.877 C16.659,29.877 16.35,28.974 16.686,28.638 C16.789,28.535 16.914,28.494 17.038,28.501 z M18.939,28.646 C19.725,28.646 20.027,29.176 19.562,29.737 C18.946,30.48 18.341,30.219 18.341,29.21 C18.341,28.857 18.565,28.646 18.939,28.646 z M27.539,29.262 C27.73,29.262 27.887,29.65 27.887,30.124 C27.887,31.35 28.412,31.725 30.129,31.725 C31.196,31.725 31.596,31.837 31.504,32.11 C31.361,32.537 28.496,32.718 27.883,32.339 C27.383,32.029 27.073,29.262 27.539,29.262 z M10.851,29.401 C10.983,29.426 10.936,29.749 10.757,30.416 C10.589,31.043 10.384,31.109 8.606,31.109 C7.03,31.109 6.64,31.014 6.64,30.628 C6.64,30.232 6.887,30.185 8.043,30.358 C9.25,30.539 9.551,30.469 10.198,29.861 C10.538,29.542 10.749,29.381 10.851,29.401 z M11.549,29.877 C12.081,29.877 12.131,30.337 11.708,31.343 C11.31,32.291 11.207,32.341 9.657,32.336 C8.76,32.334 7.818,32.197 7.564,32.033 C7.235,31.82 7.594,31.733 8.811,31.73 C10.591,31.725 11.259,31.371 11.259,30.432 C11.259,30.127 11.389,29.877 11.549,29.877 z M26.568,30.229 C26.873,30.205 26.907,30.39 26.781,31.017 C26.537,32.238 27.468,33.007 29.417,33.194 C30.263,33.275 30.88,33.463 30.788,33.611 C30.62,33.884 27.868,33.926 26.896,33.67 C26.425,33.547 26.149,32.726 25.935,30.812 C25.908,30.565 26.126,30.312 26.421,30.252 C26.476,30.24 26.525,30.233 26.568,30.229 z M36.452,30.338 C36.473,30.347 36.486,30.382 36.489,30.446 C36.5,30.674 36.802,31.273 37.162,31.778 C37.598,32.39 37.713,32.799 37.508,33.004 C37.303,33.21 36.982,33.006 36.546,32.393 C36.039,31.681 35.956,31.312 36.18,30.753 C36.28,30.505 36.371,30.358 36.428,30.338 C36.437,30.335 36.445,30.335 36.452,30.338 z M19.232,30.657 C19.577,30.663 19.591,32.003 19.412,39.499 C19.293,44.453 19.177,50.678 19.154,53.331 C19.113,57.969 19.139,58.193 19.848,59.152 L20.585,60.149 L19.54,59.917 C18.966,59.79 18.357,59.683 18.187,59.679 C18.018,59.675 17.602,59.781 17.264,59.913 C16.722,60.124 16.739,60.052 17.403,59.324 C18.05,58.614 18.169,58.154 18.23,56.119 C18.27,54.811 18.379,51.525 18.473,48.815 C18.567,46.105 18.655,40.955 18.667,37.37 C18.687,31.832 18.761,30.824 19.159,30.672 C19.185,30.662 19.209,30.656 19.232,30.657 z M2.484,30.801 C3.118,30.801 3.063,31.523 2.382,32.139 C2.072,32.42 1.587,32.649 1.304,32.649 C0.582,32.649 0.661,31.807 1.406,31.571 C1.744,31.464 2.021,31.246 2.021,31.088 C2.021,30.93 2.23,30.801 2.484,30.801 z M12.729,30.934 C12.755,30.936 12.78,30.944 12.803,30.958 C13.197,31.201 12.909,32.286 12.253,33.034 C11.896,33.44 11.302,33.573 9.844,33.573 C8.779,33.573 7.823,33.434 7.718,33.265 C7.495,32.904 7.604,32.883 9.328,32.951 C11.176,33.024 11.778,32.755 12.149,31.689 C12.312,31.223 12.547,30.924 12.729,30.934 z M25.354,31.239 C25.375,31.24 25.399,31.248 25.423,31.263 C25.593,31.368 25.733,31.826 25.736,32.282 C25.744,33.659 26.184,34.013 28.103,34.184 C29.085,34.271 29.888,34.481 29.888,34.65 C29.888,35.067 27.969,35.141 26.72,34.772 C26.079,34.582 25.598,34.187 25.411,33.695 C25.044,32.729 25.028,31.222 25.354,31.239 z M13.98,31.486 C14.116,31.473 14.259,31.523 14.388,31.651 C14.772,32.036 14.152,34.481 13.629,34.64 C12.862,34.874 9.168,35.074 8.986,34.892 C8.524,34.429 8.911,34.277 10.543,34.277 C11.985,34.277 12.389,34.155 12.853,33.583 C13.162,33.201 13.414,32.635 13.414,32.325 C13.414,31.848 13.681,31.514 13.98,31.486 z M24.311,31.895 C24.378,31.894 24.452,31.948 24.528,32.069 C24.677,32.303 24.8,32.942 24.803,33.488 C24.809,34.696 25.958,35.42 27.871,35.42 C28.774,35.42 29.118,35.547 29.118,35.882 C29.118,36.226 28.783,36.335 27.81,36.308 C25.235,36.238 24.372,35.708 24.052,34.001 C23.852,32.936 24.021,31.899 24.311,31.895 z M35.551,32.257 C35.725,32.257 35.972,32.443 36.264,32.813 C36.592,33.231 37.143,33.573 37.487,33.573 C37.932,33.573 38.06,33.714 37.927,34.06 C37.824,34.327 37.74,34.605 37.74,34.675 C37.74,34.746 37.473,34.804 37.147,34.804 C36.534,34.804 35.277,33.465 35.277,32.813 C35.277,32.442 35.378,32.257 35.551,32.257 z M15.175,32.503 C15.214,32.499 15.253,32.516 15.29,32.554 C15.72,32.983 14.952,35.691 14.352,35.863 C13.271,36.173 10.473,36.379 10.258,36.164 C9.773,35.678 10.088,35.547 11.92,35.475 C12.962,35.434 13.915,35.338 14.038,35.262 C14.162,35.185 14.425,34.476 14.624,33.686 C14.818,32.918 15.004,32.518 15.175,32.503 z M3.081,32.532 C3.097,32.531 3.112,32.531 3.126,32.533 C3.366,32.56 3.236,33.044 2.725,33.91 C2.154,34.876 1.739,35.015 1.159,34.435 C0.615,33.89 0.71,33.265 1.337,33.265 C1.638,33.265 2.193,33.049 2.569,32.785 C2.798,32.625 2.969,32.542 3.081,32.532 z M23.258,33.265 C23.433,33.265 23.576,33.576 23.577,33.957 C23.577,34.339 23.842,35.083 24.164,35.612 C24.674,36.447 24.98,36.602 26.497,36.792 C28.071,36.988 28.188,37.052 27.68,37.437 C27.039,37.923 26.98,37.925 25.177,37.521 C24.153,37.293 23.784,37.038 23.554,36.4 C23.389,35.946 23.101,35.272 22.913,34.902 C22.545,34.181 22.738,33.265 23.258,33.265 z M16.162,33.419 L16.174,34.822 C16.18,35.595 16.008,36.469 15.791,36.766 C15.509,37.151 14.851,37.341 13.491,37.427 C12.444,37.494 11.515,37.433 11.428,37.292 C11.243,36.992 12.729,36.652 14.223,36.652 C15.036,36.652 15.262,36.525 15.262,36.071 C15.262,35.752 15.464,35.025 15.712,34.455 L16.162,33.419 z M35.19,33.95 C35.317,33.955 35.562,34.16 35.911,34.603 C36.291,35.086 36.859,35.42 37.301,35.42 C38.198,35.42 38.277,35.892 37.452,36.333 C36.531,36.826 36.364,36.741 35.61,35.4 C35.096,34.484 34.979,33.94 35.19,33.95 z M3.371,33.959 C3.385,33.956 3.397,33.956 3.407,33.961 C3.508,34.009 3.366,34.484 2.927,35.227 C2.565,35.841 2.179,36.339 2.068,36.334 C1.649,36.314 0.69,35.417 0.882,35.225 C0.993,35.115 1.297,35.202 1.56,35.42 C1.822,35.638 2.075,35.761 2.122,35.695 C2.169,35.628 2.454,35.181 2.755,34.7 C3.06,34.214 3.27,33.984 3.371,33.959 z M34.568,34.59 C34.58,34.588 34.591,34.588 34.603,34.59 C34.722,34.613 34.847,34.875 35.086,35.444 C35.726,36.967 36.3,37.401 37.105,36.97 C37.615,36.697 37.74,36.721 37.74,37.092 C37.74,37.346 37.472,37.697 37.144,37.873 C35.996,38.487 35.388,38.24 34.657,36.862 C34.1,35.812 34.022,35.407 34.287,34.937 C34.405,34.728 34.488,34.605 34.568,34.59 z M3.874,34.804 C4.256,34.804 4.057,35.667 3.36,37.037 C2.874,37.993 2.829,38.003 1.571,37.467 C0.567,37.038 0.949,36.465 2.013,36.803 C2.49,36.955 2.709,36.768 3.072,35.899 C3.324,35.297 3.685,34.804 3.874,34.804 z M22.346,34.833 C22.486,34.846 22.659,35.208 22.799,35.959 C23.069,37.404 23.457,37.883 24.358,37.883 C25.267,37.883 26.039,38.181 26.039,38.532 C26.039,38.914 24.561,38.846 23.268,38.405 C22.239,38.054 22.186,37.963 22.097,36.421 C22.037,35.376 22.165,34.817 22.346,34.833 z M17.151,35.029 C17.332,35.048 17.357,35.697 17.076,36.814 C16.812,37.859 16.517,38.315 15.969,38.523 C15.144,38.837 13.821,38.86 13.107,38.573 C12.846,38.468 13.382,38.244 14.338,38.058 C16.019,37.732 16.036,37.717 16.514,36.205 C16.775,35.381 17.011,35.015 17.151,35.029 z M17.891,36.036 C17.969,36.036 18.033,37.075 18.033,38.345 C18.033,39.615 17.929,40.644 17.802,40.631 C17.159,40.566 15.441,39.805 15.355,39.547 C15.301,39.385 15.664,39.098 16.162,38.911 C16.854,38.649 17.147,38.271 17.408,37.303 C17.596,36.606 17.813,36.036 17.891,36.036 z M4.585,36.188 C4.66,36.174 4.698,36.322 4.739,36.604 C4.796,37.001 4.677,37.729 4.473,38.221 C4.082,39.163 3.413,39.326 2.098,38.798 C1.111,38.401 1.242,38.176 2.407,38.267 C3.297,38.337 3.475,38.21 4.02,37.114 C4.328,36.495 4.488,36.207 4.585,36.188 z M21.174,36.344 C21.31,36.344 21.42,36.824 21.42,37.411 C21.42,38.542 22.034,39.115 23.247,39.115 C24.285,39.115 23.973,39.607 22.693,39.99 C20.416,40.672 20.189,40.556 20.189,38.715 C20.189,37.217 20.552,36.344 21.174,36.344 z M33.468,36.49 C33.766,36.463 34.415,37.356 34.764,38.302 C34.936,38.769 35.173,38.838 36.05,38.673 C36.901,38.513 37.124,38.57 37.124,38.947 C37.124,39.31 36.774,39.423 35.651,39.423 C34.187,39.423 34.175,39.414 33.667,38.045 C33.386,37.287 33.272,36.595 33.413,36.508 C33.429,36.498 33.448,36.492 33.468,36.49 z M5.481,37.384 C5.854,37.31 5.756,39.876 5.347,40.285 C4.845,40.788 3.283,40.73 2.252,40.171 C1.007,39.495 1.207,39.354 3.079,39.588 L4.752,39.797 L4.962,38.683 C5.077,38.07 5.293,37.493 5.443,37.4 C5.456,37.392 5.469,37.387 5.481,37.384 z M32.796,37.748 C32.947,37.729 33.207,38.188 33.396,38.817 C33.751,40.004 33.802,40.039 35.135,40.039 C36.542,40.039 36.789,40.251 36.139,40.901 C35.936,41.104 35.17,41.271 34.438,41.271 C33.292,41.271 33.064,41.16 32.806,40.481 C32.435,39.507 32.414,37.976 32.768,37.758 C32.777,37.752 32.786,37.749 32.796,37.748 z M31.719,38.749 C31.838,38.765 31.908,39.087 32.022,39.845 C32.277,41.551 32.749,41.96 34.324,41.847 C35.003,41.798 35.657,41.856 35.777,41.976 C35.897,42.096 35.73,42.211 35.405,42.231 C35.08,42.251 34.093,42.316 33.21,42.375 C32.177,42.444 31.523,42.349 31.372,42.108 C30.987,41.49 31.024,39.617 31.433,39.023 C31.559,38.84 31.648,38.739 31.719,38.749 z M6.695,39.115 C6.97,39.115 6.684,40.861 6.278,41.655 C6.127,41.952 5.904,42.176 5.783,42.153 C5.662,42.129 5.216,42.057 4.793,41.992 C2.409,41.627 2.021,41.524 2.021,41.261 C2.021,41.092 2.775,41.051 3.834,41.162 L5.648,41.351 L6.052,40.233 C6.274,39.618 6.563,39.115 6.695,39.115 z M30.283,40.039 C30.509,40.055 30.658,40.487 30.658,41.26 C30.658,42.851 31.357,43.256 33.621,42.973 C35.263,42.768 35.619,42.961 34.907,43.672 C34.491,44.089 30.171,44.192 29.923,43.791 C29.664,43.372 29.61,40.797 29.852,40.406 C29.992,40.179 30.123,40.061 30.237,40.041 C30.253,40.039 30.268,40.038 30.283,40.039 z M7.723,40.466 C7.834,40.488 7.857,40.846 7.75,41.549 C7.635,42.295 7.469,43.023 7.381,43.166 C7.191,43.472 3.143,43.521 2.843,43.221 C2.384,42.762 2.73,42.656 4.685,42.656 C6.71,42.656 6.737,42.645 7.072,41.678 C7.358,40.85 7.596,40.442 7.723,40.466 z M28.778,40.988 C29.011,41.007 29.118,41.442 29.118,42.311 C29.118,44.094 29.623,44.464 32.152,44.532 C33.278,44.562 34.255,44.603 34.324,44.623 C34.392,44.642 34.198,44.935 33.891,45.274 C33.568,45.63 32.997,45.867 32.535,45.836 C29.976,45.663 28.938,45.507 28.624,45.247 C28.091,44.804 27.786,41.917 28.218,41.396 C28.453,41.113 28.638,40.976 28.778,40.988 z M8.8,41.328 L8.8,41.328 C9.182,41.292 9.184,42.046 8.799,43.432 C8.524,44.42 8.354,44.549 6.867,44.894 C4.949,45.34 4.87,45.34 3.868,44.885 C3.185,44.574 3.347,44.516 5.317,44.365 C6.537,44.272 7.67,44.057 7.835,43.888 C8,43.719 8.18,43.106 8.234,42.526 C8.289,41.946 8.506,41.415 8.718,41.346 C8.747,41.336 8.774,41.33 8.8,41.328 z M27.149,41.901 C27.39,41.89 27.549,42.444 27.644,43.591 C27.721,44.528 27.917,45.428 28.079,45.59 C28.241,45.751 29.061,45.963 29.901,46.06 C32.635,46.377 32.913,46.476 32.495,46.98 C32.069,47.493 30.265,47.52 28.287,47.044 C27.25,46.794 26.963,46.573 26.836,45.926 C26.561,44.525 26.525,42.653 26.767,42.263 C26.912,42.027 27.039,41.906 27.149,41.901 z M9.969,42.269 C10.444,42.223 10.739,43.903 10.356,44.619 C10.175,44.957 10.027,45.502 10.027,45.831 C10.027,46.254 9.746,46.485 9.065,46.621 C7.271,46.98 4.89,46.84 4.485,46.352 C4.153,45.951 4.322,45.885 5.756,45.853 C6.666,45.833 7.826,45.728 8.334,45.62 C9.179,45.441 9.271,45.296 9.411,43.91 C9.496,43.078 9.726,42.343 9.922,42.279 C9.938,42.274 9.954,42.271 9.969,42.269 z M11.621,43.131 C11.727,43.124 11.86,43.164 12.03,43.23 C12.41,43.376 12.477,43.678 12.326,44.577 C11.865,47.319 11.69,47.569 9.941,47.975 C8.174,48.386 5.941,48.475 5.614,48.148 C5.094,47.627 5.554,47.427 7.333,47.398 C10.555,47.347 10.762,47.22 11.023,45.137 C11.214,43.609 11.301,43.153 11.621,43.131 z M25.745,43.18 C25.942,43.192 26.039,43.507 26.039,44.132 C26.039,44.717 26.125,45.624 26.229,46.147 C26.434,47.173 27.126,47.53 29.669,47.923 C30.432,48.041 30.942,48.273 30.877,48.471 C30.73,48.917 28.402,49 26.743,48.619 C25.615,48.36 25.421,48.192 25.26,47.336 C24.979,45.836 25.217,43.337 25.654,43.193 C25.687,43.183 25.717,43.179 25.745,43.18 z M13.073,43.734 C13.943,43.734 13.568,47.64 12.595,48.715 C12.333,49.005 11.752,49.31 11.304,49.394 C9.159,49.793 7.676,49.864 7.256,49.589 C6.883,49.344 6.932,49.285 7.507,49.282 C7.899,49.279 8.495,49.13 8.83,48.95 C9.166,48.771 10.008,48.527 10.701,48.409 C11.871,48.209 11.993,48.093 12.376,46.81 C12.604,46.05 12.792,45.047 12.794,44.581 C12.796,44.115 12.922,43.734 13.073,43.734 z M24.161,44.396 C24.416,44.413 24.5,44.935 24.5,46.064 C24.5,47.923 24.886,48.969 25.573,48.969 C26.637,48.969 29.106,49.664 28.948,49.919 C28.744,50.249 28.065,50.225 25.669,49.8 C23.748,49.46 23.665,49.362 23.272,46.967 C23.072,45.747 23.119,45.316 23.499,44.889 C23.794,44.558 24.008,44.386 24.161,44.396 z M14.679,44.966 C15.074,44.966 15.008,46.716 14.545,48.498 C14.206,49.808 14.018,50.058 13.243,50.232 C12.744,50.344 11.822,50.659 11.192,50.934 C9.824,51.53 9.723,51.532 9.008,50.99 C8.39,50.521 8.811,50.023 9.578,50.317 C9.822,50.41 10.735,50.257 11.605,49.976 C12.886,49.562 13.268,49.273 13.609,48.457 C13.841,47.903 14.03,47.11 14.03,46.695 C14.03,45.743 14.322,44.966 14.679,44.966 z M15.782,46.328 C15.823,46.329 15.865,46.344 15.91,46.371 C16.278,46.599 16.263,49.65 15.889,50.634 C15.713,51.096 15.132,51.607 14.466,51.885 C13.243,52.396 12.074,52.457 11.105,52.061 C10.569,51.841 10.669,51.731 11.875,51.207 C12.637,50.876 13.624,50.516 14.067,50.407 C14.765,50.236 14.901,49.999 15.079,48.661 C15.3,46.995 15.496,46.322 15.782,46.328 z M22.4,46.46 C22.525,46.437 22.666,46.761 22.781,47.528 C23.094,49.612 23.706,50.196 25.808,50.412 C27.568,50.594 28.022,50.888 27.092,51.245 C26.496,51.474 24.368,51.43 23.114,51.163 C22.22,50.973 22.187,50.904 22.098,49.043 C22.025,47.503 22.191,46.498 22.4,46.46 z M17.026,48.035 C17.095,48.035 17.18,48.123 17.294,48.272 C17.547,48.606 17.71,49.673 17.716,51.047 L17.726,53.28 L15.878,53.28 C14.862,53.28 14.03,53.144 14.03,52.978 C14.03,52.812 14.578,52.397 15.246,52.056 C16.41,51.463 16.472,51.355 16.672,49.582 C16.799,48.46 16.874,48.035 17.026,48.035 z M21.232,48.22 C21.362,48.212 21.364,48.376 21.344,48.744 C21.227,50.94 21.391,51.377 22.421,51.605 C22.971,51.726 23.822,51.816 24.311,51.803 C25.674,51.766 24.878,52.231 22.632,52.783 C20.077,53.411 20.231,53.43 19.85,52.433 C19.358,51.141 19.772,49.111 20.646,48.539 C20.952,48.338 21.131,48.227 21.232,48.22 z" fill="#FFFFFF" id="leaf"/>
  </g>
</svg>
