<?xml version="1.0" encoding="UTF-8"?>
<!DOCTYPE svg PUBLIC "-//W3C//DTD SVG 1.1//EN" "http://www.w3.org/Graphics/SVG/1.1/DTD/svg11.dtd">
<svg version="1.1" xmlns="http://www.w3.org/2000/svg" xmlns:xlink="http://www.w3.org/1999/xlink" x="0" y="0" width="38.708" height="61.055" viewBox="0, 0, 193.541, 305.273">
  <g id="Layer_1">
    <path d="M96.08,0.001 C94.146,0.034 92.382,4.32 90.414,13.131 C87.395,26.648 86.497,40.1 88.482,42.085 C91.254,44.857 90.449,46.272 84.743,48.656 C80.592,50.391 78.566,50.52 76.11,49.205 C71.755,46.875 68.78,49.653 71.771,53.257 C75.015,57.166 79.719,58.358 86.789,57.066 C92.346,56.049 93.246,56.257 93.246,58.556 C93.246,60.458 91.136,61.764 85.933,63.084 C81.911,64.104 77.581,65.582 76.311,66.367 C75.041,67.152 72.442,68.469 70.537,69.293 C68.632,70.116 67.072,71.42 67.072,72.189 C67.072,72.958 65.688,73.95 63.994,74.393 C62.229,74.854 60.915,76.493 60.915,78.233 C60.915,79.902 59.909,82.101 58.681,83.121 C57.452,84.141 55.979,88.209 55.407,92.162 C54.835,96.115 53.773,100.102 53.045,101.021 C50.951,103.664 52.776,121.904 55.722,127.784 C59.26,134.846 72.582,147.847 76.28,147.847 C77.89,147.847 79.636,148.539 80.159,149.386 C80.683,150.233 83.095,150.927 85.521,150.927 L89.933,150.927 L90.435,163.247 C90.711,170.023 90.435,175.565 89.822,175.564 C89.208,175.562 87.654,173.525 86.368,171.038 C83.523,165.536 66.394,149.394 57.249,143.598 C55.184,142.288 50.959,136.267 45.745,127.202 C41.274,119.429 37.488,104.292 38.752,99.252 C40.29,93.124 37.349,94.972 32.869,102.948 C28.118,111.407 24.88,128.741 25.978,139.826 C27.394,154.117 38.156,174.338 50.398,185.711 C55.427,190.382 69.487,200.194 71.152,200.194 C71.616,200.194 74.179,201.168 76.847,202.359 C79.515,203.55 83.441,204.907 85.571,205.376 C89.205,206.176 89.462,206.872 89.738,216.683 C89.9,222.433 89.664,229.504 89.212,232.399 L88.39,237.663 L78.887,227.687 C69.396,217.726 62.633,212.511 59.21,212.511 C55.728,212.511 41.02,198.487 34.06,188.53 C30.201,183.009 27.044,177.995 27.044,177.388 C27.044,176.781 24.998,172.094 22.499,166.972 C17.454,156.631 14.029,139.127 15.627,131.852 C16.595,127.445 16.479,127.278 13.915,129.402 C8.355,134.007 1.371,151.626 0.265,163.836 C-1.456,182.825 5.452,213.299 14.149,225.088 C16.16,227.814 17.805,231.14 17.805,232.481 C17.805,233.821 19.711,236.631 22.04,238.725 C24.369,240.819 28.039,244.612 30.196,247.152 C40.214,258.955 63.435,269.412 79.716,269.454 L88.511,269.476 L87.585,279.867 C86.755,289.17 86.103,290.778 81.357,295.204 C75.418,300.741 75.741,302.682 82.929,304.642 C85.64,305.38 88.814,305.486 89.982,304.877 C91.151,304.268 94.96,304.079 98.449,304.457 C102.666,304.914 106.983,304.154 111.329,302.186 C118.544,298.92 118.406,297.187 110.933,297.187 C103.722,297.187 101.179,293.322 99.993,280.56 L98.963,269.476 L103.195,269.476 C116.892,269.476 141.584,258.902 152.521,248.353 C156.755,244.27 161.605,239.903 163.299,238.651 C168.22,235.012 179.177,219.477 181.932,212.231 C183.323,208.574 185.751,202.785 187.327,199.369 C189.92,193.752 193.735,178.641 193.533,174.79 C192.826,161.307 188.398,141.202 185.411,137.916 C184.68,137.112 184.083,135.149 184.083,133.554 C184.083,131.921 183.243,130.933 182.158,131.292 C181.1,131.642 179.81,135.683 179.292,140.272 C178.232,149.67 173.217,166.747 169.283,174.355 C163.048,186.412 151.623,198.637 142.071,203.472 C129.089,210.044 117.965,219.034 113.019,226.952 C107.413,235.927 102.544,241.763 100.659,241.763 C99.951,241.763 99.671,235.007 100.036,226.751 C100.402,218.495 100.756,210.181 100.823,208.275 C100.919,205.521 101.845,204.812 105.334,204.812 C114.347,204.812 124.713,200.337 137.377,190.98 C146.636,184.139 148.438,181.944 156.885,167.215 C167.07,149.455 171.504,121.943 166.391,108.245 C163.681,100.983 160.015,95.5 157.87,95.5 C157.264,95.5 156.282,100.426 155.689,106.446 C154.552,117.989 153.086,122.406 147.715,130.472 C142.008,139.042 137.341,143.94 130.195,148.864 C120.554,155.508 113.195,163.385 108.657,171.914 C106.532,175.907 104.013,179.429 103.06,179.74 C100.547,180.561 99.54,173.229 100.529,161.317 C101.234,152.817 101.876,150.926 104.058,150.926 C107.521,150.926 117.868,146.601 117.922,145.131 C117.944,144.508 120.743,142.282 124.14,140.185 C129.722,136.741 134.815,129.874 134.815,125.792 C134.815,124.93 135.949,122.971 137.337,121.438 C141.686,116.633 140.014,94.135 134.379,81.644 C132.014,76.402 117.785,63.168 114.513,63.168 C109.769,63.168 104.023,59.661 104.023,56.763 C104.023,53.751 106.31,52.942 107.837,55.414 C108.341,56.229 111.299,57.599 114.41,58.458 C118.848,59.683 120.825,59.523 123.591,57.71 C128.293,54.63 128.163,50.851 123.356,50.851 C121.287,50.851 117.199,49.438 114.269,47.709 C109.112,44.666 109.01,44.428 111.106,40.228 C113.027,36.377 112.921,34.79 110.156,26.136 C108.443,20.772 106.084,15.305 104.915,13.988 C103.746,12.67 101.717,8.993 100.405,5.818 C98.806,1.945 97.404,-0.023 96.08,0 z M96.525,8.509 C98.531,8.44 102.824,15.186 101.688,17.024 C100.626,18.742 97.324,19.007 95.812,17.495 C94.311,15.993 94.559,9.605 96.158,8.617 C96.269,8.548 96.391,8.514 96.525,8.509 z M99.404,20.061 C102.791,20.061 105.563,20.753 105.563,21.6 C105.563,22.446 102.791,23.139 99.404,23.139 C96.017,23.139 93.246,22.446 93.246,21.6 C93.246,20.753 96.017,20.061 99.404,20.061 z M101.84,26.218 C106.86,26.218 108.643,26.823 108.643,28.528 C108.643,30.925 107.837,30.986 96.326,29.452 C87.847,28.322 91.434,26.218 101.84,26.218 z M99.433,32.41 C104.117,32.434 108.803,32.93 109.389,33.878 C109.96,34.802 106.147,35.341 99.467,35.279 C93.374,35.222 88.997,34.563 89.483,33.777 C90.065,32.835 94.749,32.386 99.433,32.41 z M96.782,38.142 C97.562,38.137 98.432,38.144 99.404,38.161 C107.684,38.3 108.877,38.601 108.277,40.402 C107.296,43.346 92.271,43.767 91.163,40.881 C90.36,38.788 91.322,38.175 96.782,38.142 z M102.134,44.999 C105.049,45.11 107.286,46.239 111.323,49.178 C114.914,51.793 118.939,53.931 120.266,53.931 C121.594,53.931 122.252,54.624 121.728,55.47 C120.339,57.718 117.74,57.373 111.698,54.137 C102.447,49.182 96.886,48.648 92.279,52.272 C88.192,55.486 78.759,56.647 77.202,54.127 C76.745,53.389 78.868,52.379 81.92,51.884 C84.972,51.388 88.716,49.856 90.239,48.478 C91.762,47.1 95.659,45.624 98.9,45.198 C100.114,45.039 101.162,44.962 102.134,44.999 z M98.89,52.392 C100.019,52.392 100.945,53.737 100.945,55.381 C100.945,59.614 98.307,60.716 96.456,57.257 C94.77,54.105 95.627,52.392 98.89,52.392 z M98.725,63.169 C101.124,63.169 101.475,64.611 100.009,68.432 C98.84,71.479 96.502,71.579 95.371,68.631 C94.275,65.774 95.874,63.169 98.725,63.169 z M107.418,63.337 C107.675,63.359 107.904,63.459 108.094,63.648 C108.599,64.153 108.569,66.329 108.028,68.485 C106.893,73.007 102.484,73.827 102.484,69.516 C102.484,66.8 105.619,63.183 107.418,63.337 z M88.628,65.621 C90.19,65.521 91.791,67.167 91.402,69.788 C90.875,73.348 87.885,74.942 86.36,72.475 C85.805,71.576 85.776,69.496 86.298,67.853 C86.768,66.37 87.691,65.681 88.628,65.621 z M114.937,66.529 C115.36,66.539 115.724,66.659 115.982,66.916 C116.388,67.323 116.31,68.724 115.808,70.031 C114.672,72.991 110.182,73.175 110.182,70.262 C110.182,68.504 113.105,66.488 114.937,66.529 z M79.938,68.525 C81.799,68.285 84.39,72.269 83.459,74.696 C82.967,75.977 81.932,77.026 81.157,77.026 C79.236,77.026 77.65,70.452 79.198,68.904 C79.422,68.681 79.672,68.56 79.938,68.525 z M71.598,72.382 C73.014,72.382 75.132,73.297 76.364,74.781 C79.407,78.448 75.944,80.875 72.732,77.326 C71.313,75.757 70.152,74.008 70.152,73.439 C70.152,72.708 70.748,72.381 71.598,72.382 z M120.446,72.406 C124.513,72.406 124.839,73.532 121.895,77.41 C119.337,80.78 119.035,80.767 116.802,77.192 C114.625,73.706 115.614,72.406 120.446,72.406 z M98.417,74.388 C105.629,74.47 112.986,76.863 116.471,80.547 C122.022,86.416 127.117,98.09 127.117,104.937 C127.117,108.489 125.916,115.206 124.448,119.863 C122.303,126.668 120.313,129.488 114.303,134.239 C107.28,139.79 106.203,140.143 96.572,140.051 C79.969,139.893 73.792,135.931 68.629,122.132 C65.28,113.182 64.7,105.401 66.966,99.808 C67.754,97.863 68.803,94.38 69.296,92.07 C70.568,86.116 84.61,76.047 93.498,74.714 C95.098,74.474 96.753,74.369 98.417,74.388 z M65.421,77.042 C66.855,76.981 69.107,78.099 70.922,80.104 C73.036,82.44 73.186,83.173 71.545,83.137 C68.559,83.073 63.994,80.261 63.994,78.488 C63.994,77.539 64.56,77.079 65.421,77.042 z M128.711,77.585 C130.986,77.707 130.71,80.145 127.502,82.58 C124.358,84.967 122.971,85.194 121.921,83.495 C120.75,81.6 122.905,79.094 126.732,77.899 C127.524,77.652 128.186,77.557 128.711,77.585 z M99.105,79.817 C94.504,79.913 89.755,80.97 87.092,82.938 C84.618,84.767 82.045,86.263 81.376,86.263 C79.46,86.264 71.692,96.623 71.692,99.177 C71.692,100.443 71.078,101.857 70.327,102.321 C68.111,103.69 69.743,120.209 72.382,123.126 C73.696,124.577 74.77,126.327 74.77,127.014 C74.77,128.72 79.213,132.167 84.778,134.778 C87.523,136.066 91.582,136.591 94.785,136.073 C102.484,134.828 116.339,128.123 116.339,125.642 C116.339,124.487 117.379,123.144 118.649,122.657 C119.919,122.17 120.96,120.058 120.96,117.965 C120.96,115.871 121.588,113.769 122.357,113.293 C123.127,112.817 123.585,108.343 123.375,103.351 C123.085,96.467 122.096,93.143 119.281,89.585 C117.24,87.005 114.932,84.856 114.152,84.81 C113.372,84.763 111.605,83.702 110.225,82.454 C108.159,80.584 103.707,79.721 99.105,79.817 z M96.278,81.955 C96.414,81.954 96.557,81.979 96.71,82.03 C97.768,82.383 98.635,83.941 98.635,85.493 C98.635,87.045 97.768,88.605 96.71,88.958 C95.491,89.364 94.785,88.093 94.785,85.493 C94.785,83.218 95.326,81.961 96.278,81.954 z M130.224,83.404 C130.775,83.426 131.213,83.878 131.765,84.771 C132.559,86.056 132.436,87.73 131.46,88.907 C129.287,91.525 125.578,91.432 125.578,88.761 C125.578,87.594 126.67,85.734 128.005,84.627 C129.009,83.793 129.673,83.383 130.224,83.404 z M105.204,83.564 C106.198,83.419 107.102,84.494 107.102,86.905 C107.102,89.493 106.257,90.882 104.685,90.882 C103.081,90.882 102.434,89.76 102.761,87.539 C103.124,85.075 104.209,83.709 105.204,83.564 z M90.265,84.806 C90.957,84.886 91.733,85.654 92.311,87.159 C92.825,88.498 93.246,89.884 93.246,90.238 C93.246,90.593 92.207,90.882 90.937,90.882 C89.654,90.882 88.628,89.513 88.628,87.802 C88.628,85.738 89.375,84.704 90.265,84.806 z M64.046,85.236 C66.08,85.322 68.613,86.612 68.613,87.968 C68.613,89.79 62.883,89.742 61.751,87.91 C61.264,87.122 61.506,86.079 62.29,85.594 C62.745,85.313 63.368,85.208 64.046,85.236 z M112.78,87.056 C114.459,87.068 115.107,89.428 113.205,91.72 C112.182,92.953 110.735,93.962 109.992,93.962 C107.865,93.962 108.416,89.906 110.814,87.916 C111.546,87.309 112.22,87.052 112.78,87.056 z M82.769,89.369 C84.082,89.347 85.729,89.931 86.4,91.017 C87.986,93.582 84.929,95.806 82.777,93.653 C81.761,92.637 80.93,91.251 80.93,90.574 C80.93,89.771 81.748,89.386 82.769,89.369 z M133.583,90.882 C135.871,90.882 134.835,96.704 132.379,97.646 C128.99,98.947 128.656,98.851 128.656,96.579 C128.656,94.36 131.664,90.882 133.583,90.882 z M97.952,91.68 C101.707,91.761 105.747,93.597 109.731,97.34 C115.988,103.218 113.628,114.981 105.071,120.575 C99.661,124.111 95.905,124.613 90.167,122.567 C83.989,120.365 80.647,114.997 81.953,109.379 C84.654,97.768 90.783,91.524 97.952,91.68 z M62.657,92.421 C64.774,92.421 65.595,93.271 65.243,95.098 C64.652,98.165 60.157,99.551 58.658,97.126 C57.172,94.722 59.127,92.421 62.657,92.421 z M97.241,92.79 L92.55,96.065 C89.969,97.866 87.632,99.452 87.357,99.59 C87.081,99.727 86.544,102.55 86.163,105.864 C85.53,111.374 85.952,112.233 91.09,115.888 L96.708,119.885 L102.675,116.775 C106.769,114.641 108.65,112.626 108.664,110.356 C108.676,108.536 109.075,105.59 109.553,103.81 C110.248,101.222 109.101,99.794 103.832,96.682 L97.241,92.79 z M117.705,92.889 C118.406,92.853 119.08,92.981 119.632,93.323 C120.534,93.88 120.407,95.079 119.305,96.407 C116.989,99.198 113.261,99.215 113.261,96.434 C113.261,94.6 115.602,92.999 117.705,92.889 z M77.714,94.242 C79.545,94.201 82.469,96.217 82.469,97.975 C82.469,100.889 77.978,100.704 76.842,97.744 C76.341,96.437 76.262,95.034 76.669,94.627 C76.926,94.37 77.291,94.252 77.714,94.242 z M96.998,95.801 C99.039,95.831 101.138,97.227 100.559,98.965 C99.702,101.539 95.346,102.272 93.986,100.071 C93.388,99.103 93.622,97.588 94.508,96.702 C95.154,96.056 96.071,95.787 96.998,95.801 z M119.584,99.025 C120.111,98.995 120.598,99.143 120.984,99.529 C122.073,100.618 121.642,101.956 119.608,103.797 C117.485,105.719 116.332,105.972 115.54,104.691 C114.271,102.638 117.3,99.155 119.584,99.025 z M90.167,100.119 C91.014,100.119 91.706,100.771 91.706,101.568 C91.706,102.365 91.014,103.446 90.167,103.969 C89.32,104.492 88.628,103.84 88.628,102.52 C88.628,101.2 89.32,100.119 90.167,100.119 z M104.793,100.119 C106.063,100.119 107.102,101.158 107.102,102.428 C107.102,104.833 105.282,105.484 103.511,103.712 C101.739,101.941 102.389,100.119 104.793,100.119 z M133.015,100.523 C133.688,100.48 134.367,100.611 134.955,100.974 C135.725,101.451 136.354,102.839 136.354,104.059 C136.354,106.925 130.786,106.956 129.688,104.096 C129.02,102.356 130.994,100.653 133.015,100.523 z M75.754,101.072 C76.417,101.094 77.178,101.299 77.986,101.732 C79.652,102.623 80.608,104.012 80.111,104.816 C78.924,106.737 75.208,106.689 74.002,104.738 C72.684,102.606 73.767,101.008 75.754,101.072 z M61.463,101.682 C63.442,101.665 64.036,102.409 63.389,104.094 C62.875,105.434 62.454,106.82 62.454,107.174 C62.454,108.613 56.402,107.695 55.42,106.107 C54.172,104.088 57.411,101.716 61.463,101.682 z M97.631,103.56 C97.972,103.569 98.316,103.633 98.653,103.762 C100.798,104.585 100.935,105.204 99.39,107.066 C97.283,109.605 95.363,109.998 94.208,108.129 C92.97,106.126 95.24,103.494 97.631,103.56 z M159.735,105.458 C160.774,105.401 162.146,107.132 163.416,110.171 C164.716,113.282 165.567,117.768 165.308,120.139 L164.838,124.451 L162.039,120.71 C158.557,116.056 156.934,107.062 159.311,105.593 C159.445,105.51 159.586,105.466 159.735,105.458 z M118.814,107.817 C119.994,107.817 120.96,108.856 120.96,110.127 C120.96,111.397 119.596,112.436 117.928,112.436 C115.867,112.436 115.18,111.697 115.783,110.127 C116.27,108.856 117.634,107.817 118.814,107.817 z M135.969,107.842 C138.746,107.808 138.341,111.935 135.459,113.041 C132.235,114.278 132.089,114.254 130.86,112.264 C129.743,110.458 132.72,107.882 135.969,107.842 z M79.37,107.88 C81.003,107.856 80.832,108.39 79.498,109.997 C77.092,112.896 71.148,113.308 72.066,110.512 C72.414,109.454 74.685,108.355 77.112,108.071 C78.08,107.958 78.825,107.888 79.37,107.88 z M90.03,108.01 C90.495,107.966 90.954,108.093 91.321,108.459 C91.843,108.982 91.529,110.151 90.623,111.058 C89.517,112.163 88.657,112.189 88.007,111.138 C87.187,109.811 88.635,108.142 90.03,108.01 z M103.159,108.058 C103.312,108.061 103.473,108.08 103.639,108.111 C105.121,108.396 106.332,109.601 106.332,110.789 C106.332,113.22 103.616,114.595 102.002,112.982 C100.019,110.999 100.86,108.004 103.159,108.058 z M61.653,111.09 C63.291,111.16 63.994,111.795 63.994,113.104 C63.994,114.771 62.53,115.516 59.247,115.516 C53.357,115.516 53.884,111.889 59.878,111.179 C60.242,111.136 60.58,111.107 60.892,111.093 C61.165,111.08 61.419,111.08 61.653,111.09 z M34.407,111.645 C34.896,111.655 35.423,112.173 36.218,113.131 C37.919,115.18 37.801,116.065 35.485,118.624 C30.436,124.203 28.285,121.334 32.211,114.257 C33.21,112.457 33.777,111.632 34.407,111.645 z M97.095,112.436 C98.365,112.436 99.404,113.475 99.404,114.745 C99.404,116.015 98.365,117.055 97.095,117.055 C95.825,117.055 94.785,116.015 94.785,114.745 C94.785,113.475 95.825,112.436 97.095,112.436 z M77.874,114.192 C78.424,114.209 78.859,114.658 79.405,115.541 C80.131,116.717 80.384,118.231 79.967,118.906 C78.935,120.576 73.231,120.471 73.231,118.783 C73.231,118.04 74.323,116.525 75.658,115.418 C76.661,114.585 77.325,114.174 77.874,114.192 z M114.516,114.532 C116.928,114.512 120.082,117.816 118.74,119.987 C117.3,122.318 115.529,122.098 113.207,119.3 C111.707,117.493 111.664,116.497 113.029,115.132 C113.442,114.719 113.96,114.536 114.516,114.532 z M131.134,115.949 C133.618,116.04 136.47,117.48 135.934,119.11 C135.13,121.552 129.207,122.269 127.859,120.088 C127.26,119.119 127.472,117.626 128.329,116.769 C128.953,116.145 130.005,115.907 131.134,115.949 z M61.699,118.99 C63.296,119.043 64.644,119.773 65.084,121.094 C65.833,123.345 60.325,124.769 57.62,123.024 C55.879,121.902 55.916,121.414 57.835,120.136 C59.066,119.316 60.458,118.949 61.699,118.99 z M158.043,120.582 C159.982,120.506 162.359,123.554 163.355,128.091 C164.585,133.689 162.582,136.328 159.167,133.611 C156.105,131.176 154.534,124.645 156.316,121.76 C156.799,120.98 157.397,120.607 158.043,120.582 z M109.922,120.734 C110.05,120.727 110.179,120.729 110.31,120.737 C111.01,120.784 111.748,121.057 112.425,121.619 C113.731,122.703 114.8,124.198 114.8,124.941 C114.8,126.878 109.021,126.613 107.789,124.619 C106.547,122.609 108.005,120.831 109.922,120.733 z M81.18,121.124 C82.553,121.149 82.953,122.81 81.892,125.574 C80.855,128.278 78.452,128.513 76.935,126.059 C76.332,125.083 77.149,123.328 78.752,122.156 C79.731,121.44 80.556,121.113 81.18,121.124 z M36.448,122.193 C36.567,122.183 36.677,122.183 36.778,122.195 C37.818,122.322 37.893,123.635 37.087,126.175 C36.426,128.256 34.767,129.37 32.328,129.37 C27.476,129.37 27.568,127.311 32.566,124.036 C34.328,122.882 35.613,122.263 36.448,122.192 z M87.14,123.214 C88.07,123.214 88.613,125.065 88.345,127.328 C87.867,131.372 84.993,133.804 83.56,131.377 C82.454,129.505 85.213,123.214 87.14,123.214 z M128.656,123.214 C130.35,123.214 131.736,124.211 131.736,125.431 C131.736,128.109 130.107,129.2 127.502,128.266 C124.396,127.151 125.296,123.214 128.656,123.214 z M103.767,124.862 C105.397,124.861 108.582,128.225 107.765,129.546 C107.301,130.297 106.343,130.912 105.637,130.912 C104.091,130.912 102.093,126.171 103.18,125.083 C103.333,124.93 103.535,124.862 103.767,124.862 z M65.845,125.446 C66.388,125.458 66.593,126.047 66.839,127.221 C67.135,128.624 66.442,130.365 65.301,131.088 C60.292,134.262 57.958,130.544 62.813,127.126 C64.418,125.996 65.301,125.433 65.845,125.446 z M99.038,126.332 C99.131,126.324 99.222,126.324 99.311,126.333 C100.228,126.431 100.945,127.475 100.945,129.281 C100.945,130.925 100.247,132.701 99.394,133.228 C97.514,134.39 95.653,130.166 97.05,127.906 C97.674,126.897 98.391,126.391 99.038,126.332 z M40.502,126.412 C40.781,126.483 40.827,127.244 40.85,128.749 C40.925,133.728 36.301,137.028 31.699,135.28 C28.591,134.099 28.306,133.568 30.159,132.396 C31.408,131.606 33.395,130.947 34.572,130.934 C35.749,130.922 37.631,129.699 38.756,128.217 C39.71,126.961 40.222,126.341 40.502,126.412 z M92.956,126.442 C93.204,126.538 93.115,127.445 92.906,129.251 C92.67,131.301 91.611,133.264 90.552,133.613 C87.933,134.475 88.131,132.13 90.982,128.511 C92.122,127.064 92.708,126.347 92.956,126.442 z M123.632,129.431 C124.564,129.448 126.019,130.125 127.809,131.433 C130.213,133.192 130.284,133.627 128.29,134.393 C125.983,135.278 122.499,132.998 122.499,130.604 C122.499,129.803 122.907,129.417 123.632,129.431 z M152.574,130.013 C153.33,130.06 154.101,131.006 154.967,132.907 C155.97,135.109 158.201,137.12 159.924,137.376 C161.647,137.631 163.342,138.705 163.691,139.764 C164.105,141.022 162.695,141.688 159.617,141.688 C155.905,141.688 154.385,140.674 152.43,136.893 C150.717,133.581 150.444,131.604 151.547,130.501 C151.892,130.156 152.231,129.992 152.574,130.013 z M69.398,131.098 C69.922,131.152 70.518,131.805 71.498,132.987 C72.81,134.567 72.523,135.694 70.299,137.706 C66.74,140.928 64.638,138.54 67.056,134.022 C68.164,131.951 68.723,131.029 69.398,131.098 z M44.432,132.82 C45.391,132.907 45.684,134.658 44.904,137.767 C44.035,141.229 43.123,141.688 37.112,141.688 C33.368,141.688 29.876,140.996 29.353,140.149 C28.788,139.234 30.591,138.61 33.794,138.61 C37.596,138.61 39.881,137.616 41.546,135.238 C42.631,133.689 43.562,132.912 44.231,132.825 C44.301,132.815 44.368,132.815 44.432,132.82 z M119.575,134.383 C121.088,134.438 122.499,135.862 122.499,137.931 C122.499,140.523 118.535,140.917 117.026,138.475 C116.457,137.555 116.703,136.091 117.572,135.222 C118.179,134.615 118.887,134.358 119.575,134.383 z M148.098,137.219 C148.197,137.209 148.299,137.211 148.406,137.226 C149.186,137.333 150.199,138.119 151.316,139.765 C152.862,142.044 155.221,143.229 158.21,143.229 C161.706,143.229 162.636,143.851 162.243,145.924 C161.885,147.81 159.996,148.762 155.938,149.098 C150.657,149.535 149.95,149.126 147.978,144.48 C146.214,140.323 146.626,137.378 148.098,137.219 z M76.054,138.61 C79.965,138.61 81.222,140.251 79.188,142.702 C77.294,144.985 75.812,145.297 74.257,143.742 C72.214,141.699 73.296,138.61 76.054,138.61 z M48.469,138.681 C49.25,138.746 50.18,139.58 50.779,141.141 C51.325,142.565 50.62,144.923 49.166,146.53 C45.961,150.071 34.474,150.466 31.706,147.13 C30.106,145.203 30.841,144.895 36.743,145.013 C44.452,145.168 47.057,144.11 47.057,140.828 C47.057,139.317 47.689,138.615 48.469,138.681 z M112.86,138.961 C112.968,138.952 113.078,138.952 113.188,138.964 C113.77,139.027 114.354,139.394 114.839,140.161 C115.637,141.424 116.085,143.108 115.834,143.902 C115.004,146.529 111.74,146.606 110.748,144.022 C109.778,141.494 111.235,139.095 112.86,138.961 z M181.961,140.202 C182.736,140.113 184.341,142.911 186.145,147.99 C188.941,155.862 188.914,158.854 186.081,155.197 C183.922,152.411 182.08,147.65 181.6,143.614 C181.331,141.349 181.496,140.256 181.961,140.202 z M142.302,141.057 C143.068,141.136 144.727,143.128 146.283,145.912 C149.013,150.795 150.427,151.772 155.349,152.18 C158.995,152.482 160.952,153.346 160.572,154.485 C159.937,156.39 146.975,157.39 144.439,155.73 C142.625,154.542 140.642,142.533 142.031,141.144 C142.1,141.074 142.192,141.046 142.302,141.057 z M104.705,141.688 C106.82,141.688 108.958,147.018 107.449,148.528 C105.807,150.17 102.381,149.373 101.529,147.151 C100.458,144.362 102.013,141.688 104.705,141.688 z M11.304,142.266 C11.52,142.353 11.562,143.246 11.586,144.859 C11.619,147.026 10.63,150.143 9.386,151.787 C6.464,155.651 6.407,152.71 9.277,146.1 C10.461,143.372 11.026,142.153 11.304,142.266 z M85.19,142.502 C87.057,142.596 88.947,144.792 88.13,146.921 C87.61,148.277 86.448,149.386 85.548,149.386 C83.294,149.386 81.751,144.869 83.432,143.188 C83.947,142.673 84.568,142.47 85.19,142.502 z M94.696,143.229 C98.626,143.229 100.137,145.879 97.809,148.685 C94.728,152.397 91.706,151.093 91.706,146.051 C91.706,144.284 92.824,143.229 94.696,143.229 z M137.694,146.308 C138.651,146.308 139.434,148.248 139.434,150.619 C139.434,156.75 142.061,158.625 150.648,158.625 C155.98,158.625 157.979,159.184 157.522,160.549 C156.807,162.682 142.483,163.588 139.418,161.693 C136.914,160.146 135.364,146.308 137.694,146.308 z M54.256,147.003 C54.914,147.129 54.68,148.744 53.786,152.081 C52.946,155.214 51.92,155.545 43.029,155.545 C35.148,155.545 33.201,155.069 33.201,153.141 C33.201,151.161 34.436,150.923 40.216,151.79 C46.248,152.695 47.756,152.346 50.992,149.306 C52.692,147.709 53.745,146.905 54.256,147.003 z M57.744,149.386 C60.406,149.386 60.657,151.684 58.541,156.715 C56.549,161.454 56.035,161.703 48.286,161.681 C43.8,161.668 39.09,160.985 37.82,160.164 C36.175,159.101 37.971,158.664 44.056,158.647 C52.957,158.623 56.296,156.852 56.296,152.158 C56.296,150.633 56.947,149.386 57.744,149.386 z M132.841,151.145 C134.364,151.024 134.535,151.947 133.907,155.086 C132.686,161.19 137.341,165.034 147.087,165.97 C151.314,166.376 154.399,167.314 153.941,168.055 C153.099,169.418 139.343,169.627 134.482,168.35 C132.127,167.732 130.747,163.629 129.678,154.061 C129.54,152.822 130.632,151.56 132.105,151.257 C132.379,151.201 132.624,151.162 132.841,151.145 z M182.26,151.689 C182.364,151.732 182.431,151.908 182.446,152.228 C182.499,153.368 184.013,156.365 185.811,158.89 C187.99,161.95 188.567,163.994 187.541,165.02 C186.515,166.047 184.911,165.027 182.73,161.965 C180.194,158.403 179.782,156.56 180.902,153.764 C181.399,152.524 181.856,151.789 182.143,151.691 C182.185,151.676 182.225,151.676 182.26,151.689 z M96.162,153.283 C97.888,153.316 97.957,160.015 97.059,197.495 C96.466,222.265 95.886,253.386 95.769,266.652 C95.564,289.845 95.697,290.963 99.24,295.756 L102.926,300.741 L97.701,299.585 C94.828,298.95 91.784,298.413 90.937,298.395 C90.09,298.375 88.012,298.901 86.318,299.561 C83.612,300.616 83.695,300.26 87.015,296.618 C90.249,293.07 90.843,290.77 91.151,280.591 C91.348,274.054 91.894,257.621 92.365,244.072 C92.836,230.524 93.273,204.772 93.336,186.847 C93.434,159.159 93.804,154.12 95.795,153.357 C95.925,153.307 96.047,153.281 96.162,153.283 z M12.418,154.005 C15.591,154.005 15.317,157.612 11.911,160.695 C10.362,162.097 7.937,163.244 6.522,163.244 C2.909,163.244 3.305,159.036 7.029,157.855 C8.722,157.317 10.107,156.231 10.107,155.441 C10.107,154.651 11.148,154.005 12.418,154.005 z M63.644,154.671 C63.774,154.678 63.9,154.717 64.017,154.79 C65.985,156.006 64.545,161.43 61.263,165.168 C59.481,167.197 56.508,167.862 49.219,167.862 C43.896,167.862 39.114,167.168 38.59,166.322 C37.476,164.519 38.019,164.413 46.64,164.754 C55.882,165.119 58.888,163.774 60.746,158.445 C61.559,156.112 62.735,154.62 63.644,154.671 z M126.769,156.194 C126.877,156.199 126.994,156.238 127.117,156.314 C127.964,156.838 128.668,159.131 128.68,161.409 C128.72,168.295 130.921,170.064 140.517,170.918 C145.425,171.354 149.442,172.404 149.442,173.251 C149.442,175.335 139.844,175.702 133.601,173.858 C130.394,172.91 127.992,170.935 127.056,168.472 C125.22,163.643 125.142,156.109 126.769,156.194 z M69.901,157.428 C70.582,157.363 71.297,157.614 71.938,158.254 C73.862,160.179 70.761,172.405 68.147,173.2 C64.309,174.367 45.841,175.368 44.931,174.458 C42.619,172.146 44.556,171.382 52.716,171.382 C59.923,171.382 61.946,170.774 64.264,167.912 C65.809,166.004 67.072,163.174 67.072,161.624 C67.072,159.238 68.404,157.57 69.901,157.428 z M121.557,159.474 C121.892,159.469 122.259,159.739 122.643,160.345 C123.384,161.516 124.003,164.707 124.015,167.437 C124.044,173.478 129.793,177.099 139.357,177.099 C143.873,177.099 145.593,177.736 145.593,179.409 C145.593,181.127 143.918,181.673 139.049,181.54 C126.178,181.189 121.861,178.537 120.26,170.003 C119.261,164.677 120.105,159.495 121.557,159.474 z M177.758,161.284 C178.627,161.285 179.861,162.212 181.319,164.065 C182.962,166.154 185.716,167.862 187.438,167.862 C189.662,167.862 190.299,168.568 189.635,170.297 C189.121,171.636 188.701,173.022 188.701,173.376 C188.701,173.73 187.366,174.02 185.734,174.02 C182.671,174.02 176.384,167.325 176.384,164.062 C176.384,162.209 176.889,161.284 177.758,161.284 z M75.873,162.513 C76.07,162.496 76.263,162.579 76.451,162.767 C78.6,164.916 74.76,178.453 71.758,179.314 C66.355,180.863 52.364,181.893 51.292,180.821 C48.863,178.39 50.439,177.736 59.602,177.374 C64.808,177.168 69.573,176.688 70.19,176.307 C70.808,175.925 72.127,172.381 73.122,168.43 C74.089,164.589 75.021,162.591 75.873,162.513 z M15.406,162.661 C15.486,162.654 15.56,162.654 15.629,162.663 C16.832,162.8 16.182,165.22 13.625,169.549 C10.772,174.378 8.697,175.073 5.796,172.173 C3.074,169.451 3.55,166.322 6.685,166.322 C8.191,166.322 10.963,165.244 12.845,163.926 C13.989,163.124 14.844,162.71 15.406,162.661 z M116.291,166.322 C117.165,166.322 117.882,167.881 117.885,169.786 C117.885,171.692 119.21,175.414 120.823,178.059 C123.37,182.236 124.903,183.011 132.487,183.958 C140.355,184.941 140.94,185.261 138.402,187.184 C135.198,189.612 134.902,189.623 125.885,187.606 C120.768,186.462 118.923,185.187 117.769,181.997 C116.948,179.727 115.506,176.357 114.564,174.509 C112.727,170.903 113.693,166.322 116.291,166.322 z M80.809,167.092 L80.868,174.111 C80.901,177.972 80.041,182.345 78.956,183.83 C77.547,185.756 74.253,186.703 67.457,187.136 C62.219,187.469 57.577,187.164 57.14,186.457 C56.214,184.959 63.643,183.259 71.115,183.259 C75.179,183.259 76.311,182.626 76.311,180.356 C76.311,178.759 77.322,175.122 78.559,172.272 L80.809,167.092 z M175.951,169.748 C176.585,169.776 177.811,170.799 179.554,173.015 C181.454,175.43 184.294,177.099 186.504,177.099 C190.991,177.099 191.384,179.458 187.263,181.664 C182.658,184.128 181.822,183.706 178.052,176.998 C175.479,172.421 174.894,169.701 175.951,169.748 z M16.855,169.794 C16.926,169.777 16.987,169.78 17.036,169.802 C17.54,170.042 16.829,172.42 14.637,176.134 C12.826,179.205 10.893,181.696 10.341,181.669 C8.245,181.567 3.45,177.086 4.41,176.126 C4.963,175.573 6.486,176.011 7.798,177.099 C9.109,178.187 10.375,178.805 10.611,178.473 C10.846,178.14 12.27,175.903 13.775,173.501 C15.298,171.07 16.352,169.919 16.855,169.794 z M172.843,172.95 C172.9,172.94 172.958,172.937 173.016,172.95 C173.61,173.066 174.236,174.376 175.431,177.221 C178.629,184.834 181.499,187.004 185.524,184.851 C188.078,183.484 188.701,183.603 188.701,185.459 C188.701,186.729 187.36,188.485 185.723,189.362 C179.983,192.434 176.94,191.198 173.285,184.308 C170.501,179.06 170.113,177.035 171.438,174.686 C172.028,173.641 172.439,173.026 172.842,172.95 z M19.37,174.02 C21.278,174.02 20.285,178.333 16.8,185.183 C14.369,189.962 14.146,190.015 7.854,187.332 C2.833,185.191 4.744,182.326 10.065,184.015 C12.452,184.772 13.546,183.838 15.361,179.495 C16.619,176.485 18.423,174.02 19.37,174.02 z M111.73,174.166 C112.433,174.231 113.294,176.037 113.996,179.794 C115.347,187.02 117.288,189.416 121.791,189.416 C126.335,189.416 130.197,190.906 130.197,192.66 C130.197,194.567 122.804,194.228 116.339,192.024 C111.198,190.271 110.931,189.816 110.487,182.103 C110.186,176.877 110.827,174.082 111.73,174.166 z M85.757,175.145 C86.662,175.238 86.785,178.482 85.378,184.067 C84.062,189.293 82.586,191.573 79.846,192.615 C75.719,194.184 69.103,194.298 65.533,192.863 C64.229,192.339 66.911,191.219 71.692,190.291 C80.093,188.66 80.179,188.586 82.571,181.023 C83.874,176.905 85.053,175.072 85.757,175.145 z M89.456,180.179 C89.847,180.179 90.167,185.375 90.167,191.726 C90.167,198.076 89.646,203.219 89.011,203.155 C85.795,202.829 77.204,199.024 76.775,197.736 C76.504,196.924 78.32,195.491 80.809,194.552 C84.27,193.245 85.737,191.352 87.041,186.512 C87.978,183.029 89.065,180.179 89.456,180.179 z M22.923,180.941 C23.3,180.868 23.488,181.61 23.693,183.02 C23.981,185.005 23.383,188.643 22.364,191.103 C20.412,195.816 17.064,196.628 10.492,193.987 C5.557,192.003 6.21,190.881 12.033,191.336 C16.484,191.683 17.373,191.047 20.101,185.568 C21.641,182.476 22.438,181.035 22.923,180.941 z M105.871,181.718 C106.549,181.718 107.102,184.118 107.102,187.052 C107.102,192.71 110.173,195.575 116.238,195.575 C121.424,195.575 119.868,198.032 113.467,199.95 C102.082,203.361 100.945,202.781 100.945,193.573 C100.945,186.085 102.759,181.718 105.871,181.718 z M167.34,182.448 C168.829,182.314 172.076,186.777 173.822,191.509 C174.683,193.846 175.865,194.187 180.25,193.364 C184.504,192.566 185.622,192.851 185.622,194.735 C185.622,196.549 183.873,197.114 178.256,197.114 C170.938,197.114 170.874,197.069 168.336,190.223 C166.932,186.433 166.359,182.974 167.065,182.538 C167.148,182.487 167.24,182.457 167.34,182.448 z M27.405,186.921 C29.269,186.551 28.779,199.381 26.736,201.425 C24.224,203.937 16.415,203.648 11.262,200.852 C5.035,197.474 6.036,196.768 15.396,197.938 L23.762,198.984 L24.808,193.414 C25.383,190.35 26.466,187.463 27.217,186.999 C27.282,186.959 27.345,186.933 27.405,186.921 z M163.983,188.737 C164.736,188.645 166.037,190.937 166.98,194.086 C168.757,200.017 169.009,200.194 175.677,200.194 C182.711,200.194 183.945,201.255 180.695,204.505 C179.679,205.521 175.852,206.352 172.189,206.352 C166.459,206.352 165.321,205.801 164.029,202.402 C162.178,197.535 162.072,189.879 163.84,188.787 C163.885,188.759 163.932,188.744 163.983,188.737 z M158.597,193.743 C159.19,193.823 159.541,195.434 160.109,199.222 C161.388,207.752 163.744,209.801 171.621,209.232 C175.016,208.987 178.284,209.279 178.885,209.879 C179.485,210.48 178.649,211.053 177.026,211.153 C175.403,211.253 170.465,211.577 166.053,211.874 C160.886,212.221 157.614,211.745 156.86,210.537 C154.934,207.45 155.12,198.083 157.167,195.113 C157.798,194.198 158.241,193.695 158.597,193.743 z M33.473,195.575 C34.851,195.575 33.421,204.305 31.391,208.276 C30.634,209.758 29.519,210.877 28.913,210.762 C28.308,210.646 26.081,210.286 23.964,209.961 C12.043,208.132 10.107,207.621 10.107,206.305 C10.107,205.46 13.873,205.254 19.172,205.808 L28.238,206.754 L30.26,201.165 C31.372,198.091 32.817,195.575 33.473,195.575 z M151.417,200.194 C152.546,200.273 153.29,202.434 153.29,206.297 C153.29,214.254 156.788,216.277 168.104,214.864 C176.317,213.837 178.095,214.803 174.537,218.36 C172.454,220.443 150.856,220.958 149.618,218.954 C148.323,216.858 148.051,203.984 149.26,202.027 C149.96,200.895 150.615,200.302 151.186,200.205 C151.265,200.193 151.342,200.188 151.417,200.193 z M38.613,202.33 C39.169,202.438 39.287,204.229 38.748,207.745 C38.175,211.474 37.346,215.112 36.904,215.828 C35.957,217.359 15.715,217.604 14.213,216.102 C11.921,213.81 13.651,213.28 23.427,213.28 C33.55,213.28 33.685,213.224 35.358,208.387 C36.79,204.247 37.982,202.208 38.613,202.33 z M143.891,204.938 C145.057,205.036 145.593,207.209 145.593,211.553 C145.593,220.471 148.117,222.319 160.76,222.66 C166.39,222.811 171.277,223.015 171.62,223.112 C171.963,223.209 170.989,224.673 169.456,226.367 C167.843,228.15 164.988,229.332 162.675,229.177 C149.88,228.315 144.69,227.534 143.123,226.233 C140.457,224.02 138.932,209.582 141.09,206.981 C142.264,205.566 143.191,204.879 143.891,204.938 z M43.998,206.639 L44.001,206.639 C45.912,206.459 45.921,210.23 43.994,217.158 C42.621,222.098 41.769,222.743 34.334,224.471 C24.745,226.701 24.352,226.7 19.342,224.422 C15.925,222.867 16.736,222.577 26.583,221.825 C32.683,221.36 38.348,220.286 39.174,219.439 C40.001,218.592 40.899,215.528 41.171,212.63 C41.443,209.731 42.532,207.075 43.591,206.727 C43.735,206.68 43.871,206.651 43.998,206.639 z M135.745,209.503 C136.951,209.45 137.744,212.218 138.219,217.953 C138.608,222.64 139.588,227.137 140.397,227.946 C141.206,228.755 145.304,229.814 149.504,230.3 C163.174,231.883 164.568,232.377 162.476,234.898 C160.348,237.461 151.324,237.598 141.437,235.217 C136.249,233.968 134.815,232.864 134.18,229.629 C132.804,222.626 132.628,213.265 133.835,211.312 C134.563,210.135 135.196,209.528 135.745,209.503 z M49.845,211.344 C52.221,211.116 53.695,219.514 51.778,223.096 C50.875,224.784 50.137,227.509 50.137,229.153 C50.137,231.267 48.731,232.421 45.326,233.102 C36.356,234.896 24.449,234.196 22.424,231.756 C20.763,229.754 21.611,229.421 28.779,229.263 C33.328,229.163 39.13,228.64 41.67,228.101 C45.897,227.205 46.353,226.48 47.057,219.551 C47.481,215.387 48.631,211.716 49.612,211.394 C49.69,211.368 49.768,211.352 49.845,211.344 z M58.103,215.653 C58.636,215.617 59.299,215.821 60.152,216.149 C62.052,216.878 62.383,218.39 61.629,222.883 C59.326,236.593 58.451,237.841 49.703,239.874 C40.87,241.928 29.706,242.372 28.069,240.736 C25.468,238.135 27.769,237.132 36.666,236.99 C52.777,236.733 53.811,236.1 55.115,225.683 C56.071,218.043 56.505,215.763 58.103,215.653 z M128.725,215.9 C129.711,215.96 130.197,217.532 130.197,220.657 C130.197,223.585 130.624,228.12 131.147,230.733 C132.173,235.863 135.629,237.647 148.347,239.614 C152.161,240.204 154.71,241.361 154.384,242.354 C153.652,244.581 142.013,244.996 133.716,243.092 C128.075,241.797 127.106,240.96 126.302,236.676 C124.896,229.18 126.085,216.686 128.273,215.966 C128.434,215.913 128.584,215.892 128.725,215.9 z M65.366,218.668 C69.716,218.668 67.842,238.199 62.977,243.575 C61.667,245.022 58.761,246.549 56.521,246.966 C45.794,248.962 38.382,249.318 36.281,247.942 C34.416,246.72 34.658,246.425 37.536,246.406 C39.497,246.394 42.474,245.647 44.151,244.75 C45.828,243.852 50.039,242.633 53.507,242.041 C59.355,241.042 59.964,240.462 61.881,234.05 C63.018,230.248 63.958,225.232 63.97,222.904 C63.982,220.575 64.611,218.668 65.366,218.668 z M120.807,221.979 C122.081,222.063 122.499,224.672 122.499,230.318 C122.499,239.614 124.43,244.843 127.865,244.843 C133.186,244.843 145.531,248.316 144.743,249.591 C143.721,251.244 140.328,251.121 128.345,248.999 C118.742,247.299 118.326,246.807 116.36,234.835 C115.359,228.734 115.594,226.578 117.496,224.443 C118.971,222.787 120.043,221.929 120.807,221.979 z M73.397,224.828 C75.37,224.828 75.038,233.576 72.727,242.488 C71.029,249.04 70.091,250.288 66.214,251.158 C63.722,251.716 59.109,253.295 55.961,254.666 C49.118,257.646 48.617,257.659 45.042,254.948 C41.949,252.603 44.056,250.111 47.889,251.581 C49.111,252.05 53.673,251.284 58.026,249.879 C64.431,247.81 66.342,246.361 68.046,242.283 C69.204,239.511 70.152,235.546 70.152,233.471 C70.152,228.713 71.611,224.828 73.397,224.828 z M78.909,231.638 C79.113,231.643 79.327,231.717 79.551,231.855 C81.391,232.992 81.314,248.249 79.444,253.167 C78.566,255.476 75.658,258.034 72.328,259.425 C66.217,261.979 60.369,262.283 55.526,260.302 C52.846,259.205 53.346,258.651 59.376,256.033 C63.186,254.379 68.118,252.579 70.336,252.034 C73.823,251.177 74.507,249.995 75.395,243.305 C76.5,234.971 77.481,231.607 78.909,231.638 z M112,232.296 C112.628,232.181 113.333,233.805 113.908,237.637 C115.471,248.06 118.531,250.977 129.041,252.059 C137.843,252.966 140.113,254.438 135.459,256.224 C132.483,257.366 121.842,257.146 115.571,255.813 C111.102,254.863 110.937,254.516 110.493,245.212 C110.126,237.515 110.954,232.489 112,232.296 z M85.131,240.174 C85.477,240.174 85.902,240.611 86.469,241.359 C87.737,243.029 88.548,248.364 88.578,255.234 L88.628,266.397 L79.389,266.397 C74.308,266.397 70.152,265.718 70.152,264.888 C70.152,264.059 72.888,261.984 76.232,260.278 C82.048,257.311 82.36,256.771 83.362,247.909 C83.997,242.297 84.37,240.175 85.131,240.174 z M106.16,241.099 C106.81,241.056 106.82,241.876 106.722,243.716 C106.137,254.699 106.958,256.882 112.106,258.021 C114.858,258.63 119.11,259.077 121.555,259.011 C128.371,258.83 124.389,261.155 113.162,263.914 C100.387,267.053 101.155,267.15 99.253,262.163 C96.79,255.703 98.863,245.552 103.23,242.691 C104.761,241.687 105.655,241.132 106.16,241.099 z" fill="#F55A28" id="leaf"/>
  </g>
</svg>
