<svg style="position: absolute; width: 0; height: 0; overflow: hidden;" version="1.1" xmlns="http://www.w3.org/2000/svg">
<defs>
<symbol id="svg-amex" viewBox="0 0 51 32">
<title>amex</title>
<path fill="#2557d6" style="fill: var(--color1, #2557d6)" d="M2.786 0h45.52c1.501 0 2.718 1.217 2.718 2.718v26.565c0 1.501-1.217 2.718-2.718 2.718h-45.52c-1.501 0-2.718-1.217-2.718-2.718v-26.565c0-1.501 1.217-2.718 2.718-2.718z"></path>
<path fill="#fff" style="fill: var(--color2, #fff)" d="M0.068 15.027h2.447l0.552-1.326h1.236l0.55 1.326h4.816v-1.013l0.43 1.018h2.5l0.43-1.033v1.029h11.968l-0.006-2.176h0.232c0.162 0.006 0.209 0.021 0.209 0.287v1.889h6.19v-0.507c0.499 0.266 1.276 0.507 2.298 0.507h2.604l0.557-1.326h1.236l0.545 1.326h5.018v-1.259l0.76 1.259h4.021v-8.323h-3.98v0.983l-0.557-0.983h-4.084v0.983l-0.512-0.983h-5.516c-0.923 0-1.735 0.128-2.391 0.486v-0.486h-3.806v0.486c-0.417-0.369-0.986-0.486-1.618-0.486h-13.906l-0.933 2.15-0.958-2.15h-4.38v0.983l-0.481-0.983h-3.736l-1.735 3.957v4.366h0zM15.518 13.827h-1.469l-0.005-4.674-2.077 4.674h-1.258l-2.083-4.678v4.678h-2.913l-0.55-1.331h-2.983l-0.556 1.331h-1.556l2.565-5.968h2.128l2.436 5.65v-5.65h2.338l1.875 4.048 1.722-4.048h2.385v5.968h0zM4.673 11.257l-0.98-2.379-0.975 2.379h1.955zM21.362 13.827h-4.785v-5.968h4.785v1.243h-3.353v1.076h3.272v1.223h-3.272v1.192h3.353v1.234zM28.105 9.466c0 0.951-0.638 1.443-1.009 1.591 0.313 0.119 0.581 0.329 0.709 0.503 0.202 0.297 0.237 0.562 0.237 1.095v1.172h-1.445l-0.005-0.753c0-0.359 0.035-0.876-0.226-1.163-0.209-0.21-0.528-0.255-1.044-0.255h-1.538v2.171h-1.432v-5.968h3.295c0.732 0 1.271 0.019 1.735 0.286 0.453 0.267 0.725 0.656 0.725 1.321v0zM26.295 10.353c-0.197 0.119-0.43 0.123-0.709 0.123h-1.74v-1.326h1.764c0.25 0 0.51 0.011 0.679 0.108 0.186 0.087 0.301 0.272 0.301 0.528 0 0.261-0.109 0.471-0.295 0.567v0zM30.403 13.827h-1.462v-5.968h1.462v5.968zM47.37 13.827h-2.030l-2.715-4.479v4.479h-2.917l-0.557-1.331h-2.976l-0.541 1.331h-1.676c-0.696 0-1.578-0.153-2.077-0.66-0.503-0.507-0.765-1.193-0.765-2.278 0-0.885 0.157-1.694 0.772-2.334 0.463-0.476 1.188-0.696 2.175-0.696h1.387v1.279h-1.358c-0.523 0-0.818 0.077-1.102 0.354-0.244 0.251-0.412 0.726-0.412 1.352 0 0.639 0.128 1.1 0.394 1.401 0.221 0.236 0.621 0.308 0.998 0.308h0.643l2.019-4.693h2.146l2.425 5.645v-5.645h2.181l2.518 4.156v-4.156h1.467v5.968zM38.663 11.257l-0.991-2.379-0.986 2.379h1.977z"></path>
<path fill="#fff" style="fill: var(--color2, #fff)" d="M51.020 23.356c-0.348 0.507-1.026 0.764-1.944 0.764h-2.766v-1.28h2.755c0.273 0 0.465-0.036 0.58-0.148 0.1-0.092 0.169-0.226 0.169-0.389 0-0.174-0.070-0.312-0.175-0.395-0.104-0.091-0.255-0.132-0.505-0.132-1.345-0.046-3.023 0.041-3.023-1.848 0-0.866 0.552-1.777 2.055-1.777h2.853v-1.188h-2.651c-0.8 0-1.381 0.191-1.793 0.487v-0.487h-3.921c-0.627 0-1.363 0.155-1.711 0.487v-0.487h-7.002v0.487c-0.557-0.4-1.498-0.487-1.932-0.487h-4.619v0.487c-0.441-0.425-1.421-0.487-2.019-0.487h-5.169l-1.183 1.275-1.108-1.275h-7.722v8.329h7.576l1.219-1.295 1.148 1.295 4.67 0.004v-1.959h0.459c0.62 0.010 1.35-0.015 1.995-0.293v2.248h3.852v-2.171h0.186c0.237 0 0.26 0.010 0.26 0.246v1.925h11.702c0.743 0 1.519-0.189 1.95-0.533v0.533h3.712c0.772 0 1.527-0.108 2.101-0.384v-1.552zM27.818 20.152c0 1.658-1.242 2.001-2.494 2.001h-1.787v2.002h-2.784l-1.764-1.976-1.833 1.976h-5.674v-5.969h5.761l1.762 1.957 1.822-1.957h4.577c1.137 0 2.414 0.313 2.414 1.966v0zM16.43 22.899h-3.522v-1.188h3.145v-1.218h-3.145v-1.085h3.591l1.567 1.74-1.636 1.751zM22.105 23.583l-2.199-2.431 2.199-2.354v4.786zM25.357 20.928h-1.851v-1.52h1.868c0.517 0 0.876 0.21 0.876 0.732 0 0.516-0.342 0.788-0.893 0.788v0zM35.055 18.186h4.781v1.234h-3.354v1.085h3.273v1.218h-3.273v1.188l3.354 0.005v1.239h-4.781v-5.969zM33.217 21.381c0.319 0.117 0.58 0.327 0.702 0.501 0.202 0.291 0.232 0.563 0.237 1.090v1.183h-1.438v-0.747c0-0.359 0.035-0.891-0.232-1.168-0.209-0.214-0.528-0.265-1.051-0.265h-1.531v2.18h-1.439v-5.969h3.307c0.725 0 1.253 0.032 1.724 0.282 0.452 0.272 0.736 0.645 0.736 1.326-0 0.953-0.638 1.439-1.015 1.588v0zM32.408 20.626c-0.192 0.113-0.429 0.123-0.707 0.123h-1.74v-1.341h1.764c0.255 0 0.51 0.005 0.684 0.108 0.186 0.097 0.297 0.282 0.297 0.537s-0.111 0.461-0.297 0.573v0zM45.339 21.006c0.279 0.287 0.428 0.65 0.428 1.265 0 1.284-0.806 1.884-2.25 1.884h-2.79v-1.28h2.779c0.272 0 0.464-0.036 0.585-0.148 0.099-0.092 0.169-0.226 0.169-0.389 0-0.174-0.076-0.312-0.175-0.395-0.11-0.091-0.261-0.132-0.51-0.132-1.34-0.046-3.017 0.041-3.017-1.848 0-0.866 0.546-1.777 2.048-1.777h2.872v1.27h-2.628c-0.26 0-0.43 0.010-0.574 0.108-0.157 0.097-0.215 0.24-0.215 0.429 0 0.225 0.133 0.378 0.313 0.445 0.151 0.052 0.313 0.068 0.557 0.068l0.771 0.021c0.778 0.019 1.311 0.153 1.636 0.48v0zM51.023 19.408h-2.611c-0.261 0-0.434 0.010-0.58 0.108-0.151 0.097-0.209 0.24-0.209 0.429 0 0.225 0.128 0.378 0.313 0.445 0.151 0.052 0.313 0.068 0.552 0.068l0.776 0.021c0.783 0.019 1.306 0.153 1.625 0.48 0.058 0.046 0.093 0.097 0.133 0.148v-1.698z"></path>
</symbol>
<symbol id="svg-default" viewBox="0 0 51 32">
<title>default</title>
<path fill="#000c9d" style="fill: var(--color3, #000c9d)" d="M2.718 0h45.52c1.501 0 2.718 1.217 2.718 2.718v26.565c0 1.501-1.217 2.718-2.718 2.718h-45.52c-1.501 0-2.718-1.217-2.718-2.718v-26.565c0-1.501 1.217-2.718 2.718-2.718z"></path>
<path fill="#9d9400" style="fill: var(--color4, #9d9400)" d="M4.69 10.434h4.734c0.763 0 1.381 0.618 1.381 1.381v4.011c0 0.763-0.618 1.381-1.381 1.381h-4.734c-0.763 0-1.381-0.618-1.381-1.381v-4.011c0-0.763 0.618-1.381 1.381-1.381z"></path>
<path fill="#fff" style="fill: var(--color2, #fff)" d="M5.306 21.087v-0.258h-0.348v-0.766h-0.285l-0.027 0.766h-0.777l0.719-1.703-0.27-0.117-0.793 1.844v0.234h1.117v0.656h0.316v-0.656h0.348z"></path>
<path fill="#fff" style="fill: var(--color2, #fff)" d="M6.637 19.008c-0.273 0-0.535 0.094-0.762 0.313l0.176 0.199c0.18-0.168 0.34-0.25 0.57-0.25 0.285 0 0.512 0.16 0.512 0.457 0 0.324-0.254 0.473-0.512 0.473h-0.16l-0.039 0.258h0.227c0.316 0 0.559 0.125 0.559 0.512 0 0.336-0.223 0.551-0.602 0.551-0.219 0-0.445-0.090-0.598-0.27l-0.219 0.18c0.203 0.25 0.523 0.355 0.824 0.355 0.555 0 0.934-0.352 0.934-0.816 0-0.418-0.297-0.637-0.613-0.66 0.285-0.055 0.527-0.301 0.527-0.625 0-0.367-0.32-0.676-0.824-0.676z"></path>
<path fill="#fff" style="fill: var(--color2, #fff)" d="M8.979 19.008c-0.363 0-0.606 0.129-0.82 0.387l0.227 0.172c0.172-0.199 0.316-0.285 0.582-0.285 0.301 0 0.48 0.188 0.48 0.488 0 0.441-0.219 0.734-1.234 1.707v0.266h1.598l0.039-0.277h-1.266c0.887-0.809 1.203-1.211 1.203-1.703 0-0.43-0.301-0.754-0.809-0.754z"></path>
<path fill="#fff" style="fill: var(--color2, #fff)" d="M12.291 21.477h-0.563v-2.422h-0.285l-0.797 0.492 0.141 0.23 0.617-0.371v2.070h-0.664v0.266h1.551v-0.266z"></path>
<path fill="#fff" style="fill: var(--color2, #fff)" d="M17.018 21.087v-0.258h-0.348v-0.766h-0.285l-0.027 0.766h-0.777l0.719-1.703-0.27-0.117-0.793 1.844v0.234h1.117v0.656h0.316v-0.656h0.348z"></path>
<path fill="#fff" style="fill: var(--color2, #fff)" d="M18.349 19.008c-0.273 0-0.535 0.094-0.762 0.313l0.176 0.199c0.18-0.168 0.34-0.25 0.57-0.25 0.285 0 0.512 0.16 0.512 0.457 0 0.324-0.254 0.473-0.512 0.473h-0.16l-0.039 0.258h0.227c0.316 0 0.559 0.125 0.559 0.512 0 0.336-0.223 0.551-0.602 0.551-0.219 0-0.445-0.090-0.598-0.27l-0.219 0.18c0.203 0.25 0.523 0.355 0.824 0.355 0.555 0 0.934-0.352 0.934-0.816 0-0.418-0.297-0.637-0.613-0.66 0.285-0.055 0.527-0.301 0.527-0.625 0-0.367-0.32-0.676-0.824-0.676z"></path>
<path fill="#fff" style="fill: var(--color2, #fff)" d="M20.691 19.008c-0.363 0-0.606 0.129-0.82 0.387l0.227 0.172c0.172-0.199 0.316-0.285 0.582-0.285 0.301 0 0.48 0.188 0.48 0.488 0 0.441-0.219 0.734-1.234 1.707v0.266h1.598l0.039-0.277h-1.266c0.887-0.809 1.203-1.211 1.203-1.703 0-0.43-0.301-0.754-0.809-0.754z"></path>
<path fill="#fff" style="fill: var(--color2, #fff)" d="M24.003 21.477h-0.563v-2.422h-0.285l-0.797 0.492 0.141 0.23 0.617-0.371v2.070h-0.664v0.266h1.551v-0.266z"></path>
<path fill="#fff" style="fill: var(--color2, #fff)" d="M28.731 21.087v-0.258h-0.348v-0.766h-0.285l-0.027 0.766h-0.777l0.719-1.703-0.27-0.117-0.793 1.844v0.234h1.117v0.656h0.316v-0.656h0.348z"></path>
<path fill="#fff" style="fill: var(--color2, #fff)" d="M30.061 19.008c-0.273 0-0.535 0.094-0.762 0.313l0.176 0.199c0.18-0.168 0.34-0.25 0.57-0.25 0.285 0 0.512 0.16 0.512 0.457 0 0.324-0.254 0.473-0.512 0.473h-0.16l-0.039 0.258h0.227c0.316 0 0.559 0.125 0.559 0.512 0 0.336-0.223 0.551-0.602 0.551-0.219 0-0.445-0.090-0.598-0.27l-0.219 0.18c0.203 0.25 0.523 0.355 0.824 0.355 0.555 0 0.934-0.352 0.934-0.816 0-0.418-0.297-0.637-0.613-0.66 0.285-0.055 0.527-0.301 0.527-0.625 0-0.367-0.32-0.676-0.824-0.676z"></path>
<path fill="#fff" style="fill: var(--color2, #fff)" d="M32.404 19.008c-0.363 0-0.606 0.129-0.82 0.387l0.227 0.172c0.172-0.199 0.316-0.285 0.582-0.285 0.301 0 0.48 0.188 0.48 0.488 0 0.441-0.219 0.734-1.234 1.707v0.266h1.598l0.039-0.277h-1.266c0.887-0.809 1.203-1.211 1.203-1.703 0-0.43-0.301-0.754-0.809-0.754z"></path>
<path fill="#fff" style="fill: var(--color2, #fff)" d="M35.715 21.477h-0.563v-2.422h-0.285l-0.797 0.492 0.141 0.23 0.617-0.371v2.070h-0.664v0.266h1.551v-0.266z"></path>
<path fill="#fff" style="fill: var(--color2, #fff)" d="M40.443 21.087v-0.258h-0.348v-0.766h-0.285l-0.027 0.766h-0.777l0.719-1.703-0.27-0.117-0.793 1.844v0.234h1.117v0.656h0.316v-0.656h0.348z"></path>
<path fill="#fff" style="fill: var(--color2, #fff)" d="M41.773 19.008c-0.273 0-0.535 0.094-0.762 0.313l0.176 0.199c0.18-0.168 0.34-0.25 0.57-0.25 0.285 0 0.512 0.16 0.512 0.457 0 0.324-0.254 0.473-0.512 0.473h-0.16l-0.039 0.258h0.227c0.316 0 0.559 0.125 0.559 0.512 0 0.336-0.223 0.551-0.602 0.551-0.219 0-0.445-0.090-0.598-0.27l-0.219 0.18c0.203 0.25 0.523 0.355 0.824 0.355 0.555 0 0.934-0.352 0.934-0.816 0-0.418-0.297-0.637-0.613-0.66 0.285-0.055 0.527-0.301 0.527-0.625 0-0.367-0.32-0.676-0.824-0.676z"></path>
<path fill="#fff" style="fill: var(--color2, #fff)" d="M44.116 19.008c-0.363 0-0.606 0.129-0.82 0.387l0.227 0.172c0.172-0.199 0.316-0.285 0.582-0.285 0.301 0 0.48 0.188 0.48 0.488 0 0.441-0.219 0.734-1.234 1.707v0.266h1.598l0.039-0.277h-1.266c0.887-0.809 1.203-1.211 1.203-1.703 0-0.43-0.301-0.754-0.809-0.754z"></path>
<path fill="#fff" style="fill: var(--color2, #fff)" d="M47.427 21.477h-0.563v-2.422h-0.285l-0.797 0.492 0.141 0.23 0.617-0.371v2.070h-0.664v0.266h1.551v-0.266z"></path>
<path fill="#fff" style="fill: var(--color2, #fff)" d="M3.778 28.224h0.438v-1.511l-0.476 0.096v-0.244l0.474-0.096h0.268v1.756h0.438v0.226h-1.141v-0.226z"></path>
<path fill="#fff" style="fill: var(--color2, #fff)" d="M5.508 28.224h0.438v-1.511l-0.476 0.096v-0.244l0.474-0.096h0.268v1.756h0.438v0.226h-1.141v-0.226z"></path>
<path fill="#fff" style="fill: var(--color2, #fff)" d="M8.288 28.224h0.935v0.226h-1.258v-0.226q0.153-0.158 0.415-0.423 0.264-0.267 0.332-0.344 0.129-0.145 0.179-0.244 0.052-0.101 0.052-0.198 0-0.158-0.111-0.257-0.11-0.1-0.288-0.1-0.126 0-0.267 0.044-0.139 0.044-0.299 0.133v-0.271q0.162-0.065 0.303-0.098t0.257-0.033q0.308 0 0.491 0.154t0.183 0.411q0 0.122-0.046 0.232-0.045 0.109-0.166 0.257-0.033 0.038-0.211 0.223-0.178 0.183-0.502 0.514z"></path>
<path fill="#fff" style="fill: var(--color2, #fff)" d="M10.6 27.381q0.192 0.041 0.3 0.171 0.109 0.13 0.109 0.321 0 0.293-0.202 0.454t-0.573 0.161q-0.125 0-0.257-0.025-0.131-0.024-0.272-0.073v-0.259q0.111 0.065 0.244 0.098t0.277 0.033q0.252 0 0.383-0.1 0.133-0.1 0.133-0.289 0-0.175-0.123-0.273-0.122-0.1-0.341-0.1h-0.231v-0.22h0.242q0.198 0 0.303-0.078 0.105-0.080 0.105-0.228 0-0.153-0.109-0.234-0.107-0.082-0.309-0.082-0.11 0-0.236 0.024t-0.277 0.074v-0.239q0.153-0.042 0.285-0.064 0.134-0.021 0.252-0.021 0.305 0 0.483 0.139 0.178 0.138 0.178 0.374 0 0.165-0.094 0.279-0.094 0.113-0.268 0.157z"></path>
<path fill="#fff" style="fill: var(--color2, #fff)" d="M12.386 26.468h1.052v0.226h-0.807v0.486q0.058-0.020 0.117-0.029 0.058-0.011 0.117-0.011 0.332 0 0.525 0.182t0.194 0.492q0 0.32-0.199 0.498-0.199 0.177-0.561 0.177-0.125 0-0.255-0.021-0.129-0.021-0.267-0.064v-0.269q0.119 0.065 0.247 0.097t0.269 0.032q0.23 0 0.364-0.121t0.134-0.328-0.134-0.328-0.364-0.121q-0.107 0-0.215 0.024-0.106 0.024-0.218 0.074v-0.995z"></path>
<path fill="#fff" style="fill: var(--color2, #fff)" d="M14.687 27.509q-0.191 0-0.301 0.102-0.109 0.102-0.109 0.281t0.109 0.281q0.11 0.102 0.301 0.102t0.301-0.102q0.11-0.104 0.11-0.281 0-0.179-0.11-0.281-0.109-0.102-0.301-0.102zM14.419 27.395q-0.172-0.042-0.269-0.161-0.096-0.118-0.096-0.288 0-0.238 0.169-0.376 0.17-0.138 0.464-0.138 0.296 0 0.464 0.138t0.169 0.376q0 0.17-0.097 0.288-0.096 0.118-0.267 0.161 0.194 0.045 0.301 0.177 0.109 0.131 0.109 0.321 0 0.288-0.177 0.442-0.175 0.154-0.503 0.154t-0.504-0.154q-0.175-0.154-0.175-0.442 0-0.19 0.109-0.321t0.303-0.177zM14.321 26.971q0 0.154 0.096 0.24 0.097 0.086 0.271 0.086 0.172 0 0.269-0.086 0.098-0.086 0.098-0.24t-0.098-0.24q-0.097-0.086-0.269-0.086-0.174 0-0.271 0.086-0.096 0.086-0.096 0.24z"></path>
<path fill="#fff" style="fill: var(--color2, #fff)" d="M20.983 28.158h0.438v-1.511l-0.476 0.096v-0.244l0.474-0.096h0.268v1.756h0.438v0.226h-1.141v-0.226z"></path>
<path fill="#fff" style="fill: var(--color2, #fff)" d="M23.479 27.316q0.192 0.041 0.3 0.171 0.109 0.13 0.109 0.321 0 0.293-0.202 0.454t-0.573 0.161q-0.125 0-0.257-0.025-0.131-0.024-0.272-0.073v-0.259q0.111 0.065 0.244 0.098t0.277 0.033q0.252 0 0.384-0.1 0.133-0.1 0.133-0.289 0-0.175-0.123-0.273-0.122-0.1-0.341-0.1h-0.231v-0.22h0.241q0.198 0 0.303-0.078 0.105-0.080 0.105-0.228 0-0.153-0.109-0.234-0.107-0.082-0.309-0.082-0.11 0-0.236 0.024t-0.277 0.074v-0.239q0.153-0.042 0.285-0.064 0.134-0.021 0.252-0.021 0.305 0 0.483 0.139 0.178 0.138 0.178 0.374 0 0.165-0.094 0.279-0.094 0.113-0.268 0.157z"></path>
<path fill="#fff" style="fill: var(--color2, #fff)" d="M24.628 28.158h0.936v0.226h-1.258v-0.226q0.153-0.158 0.415-0.423 0.264-0.267 0.332-0.344 0.129-0.145 0.179-0.244 0.052-0.101 0.052-0.198 0-0.158-0.111-0.257-0.11-0.1-0.288-0.1-0.126 0-0.267 0.044-0.139 0.044-0.299 0.133v-0.271q0.162-0.065 0.303-0.098t0.257-0.033q0.308 0 0.491 0.154t0.183 0.411q0 0.122-0.046 0.232-0.045 0.109-0.166 0.257-0.033 0.038-0.211 0.223-0.178 0.183-0.502 0.514z"></path>
<path fill="#fff" style="fill: var(--color2, #fff)" d="M26.174 28.158h0.438v-1.511l-0.476 0.096v-0.244l0.474-0.096h0.268v1.756h0.438v0.226h-1.141v-0.226z"></path>
<path fill="#fff" style="fill: var(--color2, #fff)" d="M29.535 27.316q0.192 0.041 0.3 0.171 0.109 0.13 0.109 0.321 0 0.293-0.202 0.454t-0.573 0.161q-0.125 0-0.257-0.025-0.131-0.024-0.272-0.073v-0.259q0.111 0.065 0.244 0.098t0.277 0.033q0.252 0 0.384-0.1 0.133-0.1 0.133-0.289 0-0.175-0.123-0.273-0.122-0.1-0.341-0.1h-0.231v-0.22h0.241q0.198 0 0.303-0.078 0.105-0.080 0.105-0.228 0-0.153-0.109-0.234-0.108-0.082-0.309-0.082-0.11 0-0.236 0.024t-0.277 0.074v-0.239q0.153-0.042 0.285-0.064 0.134-0.021 0.252-0.021 0.305 0 0.483 0.139 0.178 0.138 0.178 0.374 0 0.165-0.094 0.279-0.094 0.113-0.268 0.157z"></path>
<path fill="#fff" style="fill: var(--color2, #fff)" d="M31.189 26.636l-0.677 1.058h0.677v-1.058zM31.119 26.403h0.337v1.291h0.283v0.223h-0.283v0.467h-0.267v-0.467h-0.894v-0.259l0.824-1.255z"></path>
<path fill="#fff" style="fill: var(--color2, #fff)" d="M32.186 26.403h1.052v0.226h-0.807v0.486q0.058-0.020 0.117-0.029 0.058-0.011 0.117-0.011 0.332 0 0.525 0.182t0.194 0.492q0 0.32-0.199 0.498-0.199 0.177-0.561 0.177-0.125 0-0.255-0.021-0.129-0.021-0.267-0.064v-0.269q0.119 0.065 0.247 0.097t0.269 0.032q0.23 0 0.364-0.121t0.134-0.328-0.134-0.328-0.364-0.121q-0.107 0-0.215 0.024-0.106 0.024-0.218 0.074v-0.995z"></path>
<path fill="#fff" style="fill: var(--color2, #fff)" d="M33.916 26.403h1.052v0.226h-0.807v0.486q0.058-0.020 0.117-0.029 0.058-0.011 0.117-0.011 0.332 0 0.525 0.182t0.194 0.492q0 0.32-0.199 0.498-0.199 0.177-0.561 0.177-0.125 0-0.255-0.021-0.129-0.021-0.267-0.064v-0.269q0.119 0.065 0.247 0.097t0.269 0.032q0.23 0 0.364-0.121t0.134-0.328-0.134-0.328-0.364-0.121q-0.107 0-0.215 0.024-0.106 0.024-0.218 0.074v-0.995z"></path>
</symbol>
<symbol id="svg-mastercard" viewBox="0 0 51 32">
<title>mastercard</title>
<path fill="#000" style="fill: var(--color5, #000)" d="M2.718 0h45.52c1.501 0 2.718 1.217 2.718 2.718v26.565c0 1.501-1.217 2.718-2.718 2.718h-45.52c-1.501 0-2.718-1.217-2.718-2.718v-26.565c0-1.501 1.217-2.718 2.718-2.718z"></path>
<path fill="#d9222a" style="fill: var(--color6, #d9222a)" d="M29.487 16c0 6.736-5.46 12.196-12.196 12.196s-12.195-5.46-12.195-12.196c0-6.735 5.46-12.196 12.195-12.196s12.196 5.46 12.196 12.196z"></path>
<path fill="#ee9f2d" style="fill: var(--color7, #ee9f2d)" d="M33.664 3.804c-3.151 0-6.022 1.195-8.187 3.157-0.441 0.4-0.852 0.831-1.231 1.291h2.464c0.337 0.41 0.647 0.84 0.93 1.292h-4.323c-0.259 0.415-0.494 0.846-0.703 1.291h5.728c0.196 0.418 0.368 0.849 0.516 1.291h-6.761c-0.141 0.421-0.26 0.851-0.354 1.291h7.47c0.179 0.832 0.275 1.696 0.275 2.582 0 1.354-0.221 2.657-0.629 3.874h-6.761c0.148 0.442 0.32 0.873 0.516 1.291h5.729c-0.209 0.446-0.444 0.877-0.703 1.292h-4.323c0.282 0.45 0.593 0.882 0.93 1.291h2.463c-0.378 0.46-0.79 0.892-1.232 1.292 2.164 1.961 5.036 3.156 8.187 3.156 6.735 0 12.196-5.46 12.196-12.196s-5.46-12.196-12.196-12.196z"></path>
<path fill="#000" style="fill: var(--color5, #000)" d="M44.234 22.798c0-0.217 0.176-0.394 0.394-0.394s0.394 0.177 0.394 0.394c0 0.217-0.176 0.394-0.394 0.394s-0.394-0.177-0.394-0.394v0 0zM44.628 23.098c0.165 0 0.3-0.134 0.3-0.299s-0.134-0.299-0.3-0.299c-0.166 0-0.299 0.134-0.299 0.299s0.134 0.299 0.299 0.299v0 0zM44.575 22.971h-0.081v-0.346h0.146c0.031 0 0.062 0 0.089 0.017 0.028 0.019 0.044 0.052 0.044 0.087 0 0.039-0.023 0.075-0.060 0.089l0.064 0.153h-0.089l-0.053-0.137h-0.059v0.137zM44.575 22.775h0.045c0.017 0 0.034 0.001 0.049-0.007 0.013-0.009 0.020-0.024 0.020-0.040 0-0.013-0.008-0.029-0.020-0.035-0.014-0.009-0.037-0.007-0.052-0.007h-0.043v0.088z"></path>
<path fill="#000" style="fill: var(--color5, #000)" d="M14.443 17.335c-0.139-0.016-0.2-0.020-0.296-0.020-0.75 0-1.13 0.257-1.13 0.765 0 0.313 0.185 0.513 0.475 0.513 0.539 0 0.928-0.514 0.951-1.258v0 0zM15.406 19.577h-1.097l0.025-0.521c-0.335 0.412-0.781 0.608-1.388 0.608-0.718 0-1.21-0.561-1.21-1.374 0-1.225 0.856-1.939 2.325-1.939 0.15 0 0.343 0.014 0.54 0.039 0.041-0.166 0.052-0.237 0.052-0.326 0-0.333-0.231-0.458-0.849-0.458-0.648-0.007-1.182 0.154-1.401 0.226 0.014-0.084 0.183-1.132 0.183-1.132 0.66-0.193 1.095-0.266 1.585-0.266 1.137 0 1.739 0.51 1.738 1.475 0.002 0.258-0.040 0.578-0.107 0.997-0.115 0.729-0.361 2.291-0.395 2.671v0 0z"></path>
<path fill="#000" style="fill: var(--color5, #000)" d="M11.183 19.577h-1.324l0.758-4.756-1.693 4.756h-0.902l-0.112-4.728-0.797 4.728h-1.239l1.035-6.186h1.904l0.116 3.463 1.161-3.463h2.117l-1.024 6.186z"></path>
<path fill="#000" style="fill: var(--color5, #000)" d="M35.3 17.335c-0.138-0.016-0.2-0.020-0.295-0.020-0.75 0-1.13 0.257-1.13 0.765 0 0.313 0.185 0.513 0.474 0.513 0.539 0 0.928-0.514 0.951-1.258v0 0zM36.264 19.577h-1.097l0.025-0.521c-0.335 0.412-0.781 0.608-1.387 0.608-0.718 0-1.209-0.561-1.209-1.374 0-1.225 0.855-1.939 2.324-1.939 0.15 0 0.342 0.014 0.539 0.039 0.041-0.166 0.052-0.237 0.052-0.326 0-0.333-0.23-0.458-0.849-0.458-0.648-0.007-1.181 0.154-1.402 0.226 0.014-0.084 0.184-1.132 0.184-1.132 0.66-0.193 1.095-0.266 1.584-0.266 1.137 0 1.74 0.51 1.738 1.475 0.002 0.258-0.040 0.578-0.107 0.997-0.114 0.729-0.361 2.291-0.395 2.671v0 0z"></path>
<path fill="#000" style="fill: var(--color5, #000)" d="M21.29 19.501c-0.362 0.114-0.645 0.163-0.951 0.163-0.677 0-1.046-0.389-1.046-1.105-0.010-0.222 0.097-0.807 0.181-1.341 0.076-0.47 0.574-3.433 0.574-3.433h1.316l-0.154 0.761h0.795l-0.179 1.209h-0.798c-0.153 0.957-0.371 2.149-0.373 2.307 0 0.259 0.138 0.373 0.453 0.373 0.151 0 0.268-0.015 0.357-0.048l-0.175 1.114z"></path>
<path fill="#000" style="fill: var(--color5, #000)" d="M25.325 19.46c-0.452 0.138-0.888 0.205-1.351 0.204-1.473-0.001-2.241-0.771-2.241-2.244 0-1.72 0.977-2.986 2.303-2.986 1.085 0 1.778 0.709 1.778 1.821 0 0.369-0.048 0.729-0.162 1.237h-2.621c-0.089 0.73 0.378 1.034 1.144 1.034 0.471 0 0.896-0.097 1.368-0.317l-0.219 1.251zM24.586 16.477c0.007-0.105 0.14-0.898-0.612-0.898-0.419 0-0.719 0.32-0.841 0.898h1.453z"></path>
<path fill="#000" style="fill: var(--color5, #000)" d="M16.2 16.136c0 0.636 0.309 1.075 1.008 1.405 0.536 0.252 0.619 0.327 0.619 0.555 0 0.314-0.236 0.455-0.76 0.455-0.395 0-0.762-0.062-1.186-0.198 0 0-0.174 1.109-0.182 1.162 0.301 0.066 0.569 0.127 1.378 0.149 1.397 0 2.042-0.532 2.042-1.682 0-0.691-0.27-1.097-0.933-1.402-0.555-0.255-0.619-0.312-0.619-0.547 0-0.272 0.22-0.411 0.648-0.411 0.26 0 0.615 0.028 0.951 0.076l0.189-1.167c-0.343-0.054-0.863-0.098-1.165-0.098-1.481 0-1.994 0.774-1.989 1.703z"></path>
<path fill="#000" style="fill: var(--color5, #000)" d="M31.764 14.566c0.368 0 0.711 0.097 1.183 0.334l0.217-1.343c-0.194-0.076-0.877-0.523-1.455-0.523-0.886 0-1.635 0.44-2.162 1.165-0.768-0.255-1.084 0.26-1.471 0.772l-0.344 0.080c0.026-0.169 0.050-0.336 0.042-0.506h-1.216c-0.166 1.557-0.461 3.134-0.691 4.693l-0.060 0.338h1.325c0.221-1.436 0.342-2.356 0.416-2.979l0.499-0.277c0.074-0.277 0.308-0.371 0.776-0.36-0.061 0.328-0.094 0.674-0.094 1.032 0 1.646 0.888 2.671 2.313 2.671 0.367 0 0.682-0.048 1.17-0.181l0.233-1.41c-0.439 0.216-0.799 0.318-1.125 0.318-0.77 0-1.235-0.568-1.235-1.507 0-1.362 0.693-2.317 1.681-2.317z"></path>
<path fill="#fff" style="fill: var(--color2, #fff)" d="M11.564 19.21h-1.324l0.759-4.755-1.693 4.755h-0.902l-0.112-4.728-0.797 4.728h-1.239l1.035-6.185h1.904l0.053 3.829 1.284-3.829h2.056l-1.024 6.185z"></path>
<path fill="#000" style="fill: var(--color5, #000)" d="M42.974 13.391l-0.294 1.787c-0.362-0.476-0.751-0.821-1.265-0.821-0.668 0-1.276 0.506-1.674 1.252-0.554-0.115-1.128-0.31-1.128-0.31l-0 0.005c0.045-0.417 0.063-0.671 0.059-0.757h-1.216c-0.166 1.557-0.46 3.134-0.69 4.693l-0.061 0.338h1.324c0.179-1.162 0.316-2.126 0.417-2.891 0.452-0.409 0.679-0.765 1.136-0.742-0.202 0.489-0.321 1.053-0.321 1.632 0 1.258 0.636 2.087 1.599 2.087 0.485 0 0.857-0.167 1.221-0.555l-0.062 0.468h1.252l1.008-6.185h-1.306zM41.318 18.414c-0.451 0-0.678-0.333-0.678-0.992 0-0.989 0.426-1.69 1.027-1.69 0.455 0 0.701 0.347 0.701 0.986 0 0.997-0.433 1.696-1.050 1.696v0 0z"></path>
<path fill="#fff" style="fill: var(--color2, #fff)" d="M14.824 16.969c-0.139-0.016-0.2-0.020-0.295-0.020-0.75 0-1.13 0.257-1.13 0.765 0 0.313 0.185 0.513 0.474 0.513 0.54 0 0.929-0.514 0.951-1.258v0 0zM15.787 19.21h-1.097l0.025-0.521c-0.334 0.411-0.781 0.608-1.387 0.608-0.718 0-1.21-0.561-1.21-1.374 0-1.225 0.855-1.939 2.325-1.939 0.15 0 0.343 0.014 0.539 0.039 0.041-0.166 0.052-0.237 0.052-0.327 0-0.333-0.23-0.457-0.849-0.457-0.648-0.007-1.182 0.154-1.402 0.226 0.014-0.083 0.183-1.13 0.183-1.13 0.66-0.194 1.095-0.267 1.584-0.267 1.137 0 1.74 0.511 1.738 1.475 0.002 0.26-0.041 0.578-0.108 0.997-0.115 0.729-0.361 2.291-0.395 2.671v0 0z"></path>
<path fill="#fff" style="fill: var(--color2, #fff)" d="M33.545 13.191l-0.217 1.343c-0.472-0.238-0.815-0.334-1.183-0.334-0.989 0-1.682 0.955-1.682 2.317 0 0.939 0.466 1.507 1.235 1.507 0.326 0 0.686-0.101 1.125-0.318l-0.232 1.41c-0.488 0.133-0.803 0.181-1.17 0.181-1.425 0-2.313-1.025-2.313-2.671 0-2.211 1.227-3.757 2.982-3.757 0.578 0 1.261 0.245 1.455 0.321z"></path>
<path fill="#fff" style="fill: var(--color2, #fff)" d="M35.682 16.969c-0.139-0.016-0.2-0.020-0.295-0.020-0.75 0-1.13 0.257-1.13 0.765 0 0.313 0.185 0.513 0.474 0.513 0.539 0 0.928-0.514 0.951-1.258v0 0zM36.645 19.21h-1.097l0.025-0.521c-0.335 0.411-0.781 0.608-1.387 0.608-0.718 0-1.21-0.561-1.21-1.374 0-1.225 0.856-1.939 2.324-1.939 0.15 0 0.343 0.014 0.54 0.039 0.041-0.166 0.052-0.237 0.052-0.327 0-0.333-0.23-0.457-0.849-0.457-0.648-0.007-1.182 0.154-1.402 0.226 0.014-0.083 0.184-1.13 0.184-1.13 0.66-0.194 1.095-0.267 1.584-0.267 1.137 0 1.74 0.511 1.738 1.475 0.002 0.26-0.040 0.578-0.107 0.997-0.114 0.729-0.362 2.291-0.395 2.671v0 0z"></path>
<path fill="#fff" style="fill: var(--color2, #fff)" d="M21.671 19.133c-0.363 0.114-0.645 0.164-0.951 0.164-0.677 0-1.046-0.389-1.046-1.105-0.009-0.223 0.098-0.807 0.182-1.341 0.076-0.471 0.574-3.433 0.574-3.433h1.316l-0.153 0.762h0.675l-0.18 1.208h-0.678c-0.153 0.957-0.371 2.148-0.373 2.307 0 0.26 0.139 0.373 0.453 0.373 0.151 0 0.268-0.015 0.357-0.047l-0.175 1.113z"></path>
<path fill="#fff" style="fill: var(--color2, #fff)" d="M25.706 19.093c-0.452 0.138-0.889 0.205-1.351 0.204-1.473-0.001-2.241-0.771-2.241-2.244 0-1.72 0.977-2.986 2.303-2.986 1.085 0 1.778 0.709 1.778 1.821 0 0.369-0.048 0.729-0.162 1.237h-2.621c-0.089 0.73 0.378 1.034 1.144 1.034 0.471 0 0.896-0.097 1.368-0.318l-0.219 1.252zM24.966 16.11c0.008-0.104 0.14-0.898-0.612-0.898-0.419 0-0.719 0.32-0.841 0.898h1.453z"></path>
<path fill="#fff" style="fill: var(--color2, #fff)" d="M16.581 15.77c0 0.636 0.309 1.075 1.008 1.405 0.536 0.252 0.619 0.327 0.619 0.555 0 0.314-0.237 0.455-0.76 0.455-0.395 0-0.763-0.062-1.187-0.198 0 0-0.174 1.109-0.181 1.162 0.3 0.066 0.569 0.126 1.378 0.149 1.397 0 2.042-0.532 2.042-1.681 0-0.692-0.27-1.097-0.933-1.402-0.555-0.255-0.619-0.311-0.619-0.547 0-0.272 0.221-0.412 0.648-0.412 0.26 0 0.615 0.029 0.951 0.076l0.188-1.167c-0.343-0.054-0.862-0.098-1.165-0.098-1.481 0-1.994 0.773-1.99 1.703z"></path>
<path fill="#fff" style="fill: var(--color2, #fff)" d="M43.652 19.21h-1.253l0.062-0.468c-0.363 0.388-0.735 0.556-1.221 0.556-0.962 0-1.599-0.83-1.599-2.087 0-1.673 0.987-3.084 2.154-3.084 0.514 0 0.902 0.21 1.264 0.686l0.294-1.787h1.306l-1.008 6.185zM41.699 18.047c0.617 0 1.050-0.699 1.050-1.695 0-0.639-0.247-0.986-0.702-0.986-0.6 0-1.027 0.701-1.027 1.69 0 0.658 0.228 0.991 0.679 0.991v0 0z"></path>
<path fill="#fff" style="fill: var(--color2, #fff)" d="M37.837 14.179c-0.166 1.557-0.46 3.134-0.69 4.692l-0.061 0.338h1.324c0.474-3.076 0.588-3.677 1.331-3.601 0.118-0.63 0.339-1.181 0.503-1.459-0.555-0.116-0.864 0.198-1.27 0.793 0.032-0.257 0.091-0.507 0.079-0.763h-1.216z"></path>
<path fill="#fff" style="fill: var(--color2, #fff)" d="M26.938 14.179c-0.166 1.557-0.461 3.134-0.691 4.692l-0.060 0.338h1.325c0.473-3.076 0.587-3.677 1.33-3.601 0.119-0.63 0.339-1.181 0.503-1.459-0.554-0.116-0.864 0.198-1.269 0.793 0.032-0.257 0.090-0.507 0.079-0.763h-1.216z"></path>
<path fill="#fff" style="fill: var(--color2, #fff)" d="M44.234 18.816c0-0.218 0.176-0.394 0.394-0.394s0.394 0.176 0.394 0.394c0 0.217-0.176 0.394-0.394 0.394s-0.394-0.177-0.394-0.394v0 0zM44.628 19.115c0.166 0 0.299-0.134 0.299-0.299s-0.134-0.299-0.299-0.299c-0.165 0-0.3 0.134-0.3 0.299s0.134 0.299 0.3 0.299v0 0zM44.574 18.988h-0.081v-0.345h0.146c0.030 0 0.062 0.001 0.088 0.017 0.028 0.019 0.044 0.052 0.044 0.087 0 0.039-0.023 0.076-0.060 0.089l0.064 0.152h-0.090l-0.053-0.136h-0.059v0.136zM44.574 18.792h0.044c0.017 0 0.035 0.001 0.050-0.007 0.013-0.009 0.020-0.025 0.020-0.040 0-0.013-0.008-0.028-0.020-0.036-0.014-0.008-0.037-0.006-0.052-0.006h-0.043v0.088z"></path>
</symbol>
<symbol id="svg-visa" viewBox="0 0 51 32">
<title>visa</title>
<path fill="#0e4595" style="fill: var(--color8, #0e4595)" d="M2.718 0h45.52c1.501 0 2.718 1.217 2.718 2.718v26.565c0 1.501-1.217 2.718-2.718 2.718h-45.52c-1.501 0-2.718-1.217-2.718-2.718v-26.565c0-1.501 1.217-2.718 2.718-2.718z"></path>
<path fill="#fff" style="fill: var(--color2, #fff)" d="M18.901 22.708l2.267-13.3h3.625l-2.268 13.3h-3.624z"></path>
<path fill="#fff" style="fill: var(--color2, #fff)" d="M35.622 9.694c-0.718-0.269-1.844-0.559-3.249-0.559-3.582 0-6.105 1.804-6.127 4.389-0.020 1.911 1.801 2.977 3.177 3.613 1.411 0.652 1.886 1.068 1.879 1.65-0.009 0.892-1.127 1.299-2.169 1.299-1.451 0-2.222-0.202-3.412-0.698l-0.467-0.211-0.509 2.977c0.847 0.371 2.413 0.693 4.038 0.71 3.811 0 6.285-1.783 6.313-4.544 0.014-1.513-0.952-2.664-3.044-3.614-1.267-0.615-2.043-1.026-2.035-1.649 0-0.553 0.657-1.144 2.076-1.144 1.185-0.018 2.044 0.24 2.713 0.51l0.325 0.153 0.491-2.883z"></path>
<path fill="#fff" style="fill: var(--color2, #fff)" d="M44.95 9.407h-2.801c-0.868 0-1.517 0.237-1.898 1.103l-5.384 12.189h3.807c0 0 0.622-1.639 0.763-1.999 0.416 0 4.114 0.006 4.643 0.006 0.108 0.466 0.441 1.993 0.441 1.993h3.364l-2.934-13.292zM40.506 17.996c0.3-0.766 1.444-3.718 1.444-3.718-0.021 0.035 0.298-0.77 0.481-1.269l0.245 1.147c0 0 0.694 3.175 0.839 3.841l-3.009 0z"></path>
<path fill="#fff" style="fill: var(--color2, #fff)" d="M15.824 9.407l-3.549 9.070-0.378-1.843c-0.661-2.125-2.719-4.427-5.021-5.579l3.245 11.632 3.836-0.004 5.707-13.275h-3.84z"></path>
<path fill="#f2ae14" style="fill: var(--color9, #f2ae14)" d="M8.963 9.407h-5.846l-0.046 0.277c4.548 1.101 7.557 3.761 8.806 6.958l-1.271-6.112c-0.219-0.842-0.856-1.094-1.643-1.123z"></path>
</symbol>
</defs>
</svg>
